<svg version="1.1" id="Layer_1" xmlns="http://www.w3.org/2000/svg" xmlns:xlink="http://www.w3.org/1999/xlink" x="0px" y="0px"
	 width="100%" viewBox="0 0 4088 2195" enable-background="new 0 0 4088 2195" xml:space="preserve">
<path fill="#FFFFFF" opacity="1.000000" stroke="none" 
	d="
M2320.000000,2198.000000 
	C1546.666870,2198.000000 774.333801,2198.000000 2.000518,2198.000000 
	C2.000345,1466.000488 2.000345,734.000916 2.000173,2.001009 
	C1364.665771,2.000673 2727.331543,2.000673 4089.998047,2.000336 
	C4089.998535,733.998962 4089.998535,1465.997925 4089.999268,2197.998535 
	C3500.333252,2198.000000 2910.666748,2198.000000 2320.000000,2198.000000 
M3203.609131,1465.643677 
	C3203.609131,1465.643677 3202.837646,1465.016846 3202.941650,1463.612305 
	C3203.681396,1461.193848 3204.421387,1458.775391 3205.356201,1455.719238 
	C3197.547607,1455.719238 3190.739990,1455.719238 3183.476562,1455.719238 
	C3174.079346,1486.448120 3164.778809,1516.860840 3155.387939,1547.568237 
	C3164.395020,1547.568237 3171.920898,1547.568237 3179.261230,1547.568237 
	C3184.165771,1531.834961 3188.840332,1516.633179 3193.646973,1501.473145 
	C3199.704834,1482.366821 3212.542236,1470.275757 3232.278076,1466.917847 
	C3239.518799,1465.685791 3247.451904,1466.691162 3254.748779,1468.212158 
	C3260.383301,1469.386841 3261.388916,1472.701782 3260.365967,1478.837402 
	C3259.879639,1481.754028 3259.174805,1484.654785 3258.311768,1487.484375 
	C3255.411377,1496.996704 3252.403076,1506.476318 3249.421631,1515.963745 
	C3246.161621,1526.336792 3242.885498,1536.704590 3239.420410,1547.696045 
	C3247.809814,1547.696045 3255.340820,1547.696045 3263.713379,1547.696045 
	C3270.383789,1526.691284 3277.089600,1505.593628 3283.766602,1484.486816 
	C3284.064209,1483.546021 3284.125000,1482.525269 3284.251221,1481.536011 
	C3286.032471,1467.561646 3280.136475,1458.814087 3267.116211,1455.349487 
	C3248.375732,1450.362549 3230.305908,1452.852051 3213.166016,1461.989380 
	C3210.270508,1463.533203 3207.274902,1464.889771 3203.609131,1465.643677 
M1400.125244,1464.646484 
	C1399.722778,1464.126221 1399.320190,1463.605835 1399.420654,1461.569336 
	C1399.679321,1459.715942 1399.937988,1457.862549 1400.239990,1455.697998 
	C1392.953247,1455.697998 1386.452759,1455.697998 1379.398438,1455.697998 
	C1370.038208,1486.318481 1360.761719,1516.665039 1351.284058,1547.669434 
	C1359.324951,1547.669434 1366.497681,1547.669434 1373.863892,1547.669434 
	C1374.519165,1546.069092 1375.252686,1544.579956 1375.750122,1543.015747 
	C1379.871704,1530.052124 1383.608398,1516.954346 1388.128174,1504.132202 
	C1393.656738,1488.448853 1402.867920,1475.721558 1419.700073,1470.702148 
	C1427.739624,1468.304565 1435.908691,1467.562012 1442.440796,1474.358276 
	C1439.116943,1479.874512 1435.319336,1484.683472 1433.089111,1490.133789 
	C1422.802002,1515.273071 1428.577759,1536.382812 1455.559082,1545.216553 
	C1480.902222,1553.513794 1506.105713,1551.179932 1529.657959,1537.925903 
	C1543.006470,1530.413818 1552.095093,1519.031616 1555.283691,1503.991089 
	C1558.284546,1489.836060 1557.913086,1475.725586 1545.272949,1465.672852 
	C1540.184570,1461.626099 1534.122681,1457.676025 1527.930298,1456.339355 
	C1500.960083,1450.517578 1474.485474,1450.278442 1450.829956,1467.816650 
	C1450.210083,1468.276245 1449.232422,1468.253174 1447.084473,1468.788330 
	C1449.190063,1464.708862 1450.757568,1461.671875 1452.723022,1457.864014 
	C1438.802734,1450.401245 1425.645142,1451.845093 1412.666626,1458.719971 
	C1408.589355,1460.879639 1404.919067,1463.807373 1400.125244,1464.646484 
M1813.645264,1307.334351 
	C1914.938965,1307.349854 2016.232666,1307.367310 2117.526367,1307.379883 
	C2147.181396,1307.383545 2176.839844,1307.652588 2206.490967,1307.313477 
	C2273.143799,1306.551147 2328.814697,1264.252563 2346.743896,1201.424561 
	C2351.474854,1184.846436 2349.014404,1169.884033 2338.752441,1156.106445 
	C2335.651855,1151.943359 2332.666748,1147.693848 2329.529541,1143.346802 
	C2338.745605,1136.064819 2347.032959,1129.375122 2355.473633,1122.884521 
	C2365.080566,1115.497070 2371.285400,1106.048950 2374.236572,1094.257324 
	C2380.857422,1067.803223 2387.681885,1041.400146 2394.442627,1014.981201 
	C2398.872070,997.673157 2403.334717,980.373657 2407.893555,962.637695 
	C2404.705322,962.478210 2402.397949,962.262207 2400.090576,962.261902 
	C2271.807373,962.246887 2143.523926,962.116333 2015.241455,962.467834 
	C2003.065674,962.501160 1990.505371,964.168091 1978.793945,967.460693 
	C1923.847046,982.908875 1889.251221,1019.033264 1874.309570,1073.884644 
	C1858.839355,1130.676392 1843.742188,1187.570068 1828.591431,1244.448242 
	C1822.950317,1265.625122 1817.619019,1286.884399 1810.756836,1308.052856 
	C1756.734619,1264.649902 1702.710815,1221.248535 1648.703247,1177.827515 
	C1647.846436,1177.138550 1647.186035,1176.205200 1645.228882,1174.072632 
	C1705.982910,1174.072632 1764.817749,1174.072632 1824.015747,1174.072632 
	C1842.080200,1103.356445 1860.005005,1033.187256 1878.030518,962.623657 
	C1875.250366,962.449280 1873.274780,962.217224 1871.299316,962.217041 
	C1742.651978,962.205444 1614.004395,962.078247 1485.358032,962.436401 
	C1473.181274,962.470276 1460.614502,964.153015 1448.908813,967.469971 
	C1393.606201,983.140564 1359.022217,1019.611084 1344.116211,1074.912598 
	C1328.274536,1133.685913 1312.549316,1192.490845 1296.796021,1251.287964 
	C1291.909546,1269.525513 1287.097534,1287.782959 1282.059937,1306.752686 
	C1309.695312,1306.752686 1336.486572,1306.752686 1363.652832,1306.752686 
	C1364.535034,1303.742188 1365.429443,1300.909668 1366.195557,1298.042847 
	C1384.227783,1230.557373 1402.230591,1163.063843 1420.300293,1095.588257 
	C1421.587891,1090.780151 1422.845947,1085.859375 1424.970337,1081.396729 
	C1437.683350,1054.690674 1458.925293,1041.416626 1488.573853,1041.432617 
	C1581.226562,1041.482910 1673.879272,1041.450195 1766.531982,1041.449585 
	C1769.471436,1041.449585 1772.411011,1041.449585 1776.398193,1041.449585 
	C1771.597778,1060.045532 1767.077637,1077.555786 1762.468750,1095.409546 
	C1757.789185,1095.409546 1754.167358,1095.408325 1750.545532,1095.409790 
	C1696.220459,1095.431641 1641.885010,1094.794067 1587.573364,1095.662109 
	C1533.744263,1096.522461 1492.907104,1121.324341 1464.430298,1166.773315 
	C1463.159424,1168.801758 1462.447266,1171.180176 1461.148804,1174.138306 
	C1478.324341,1174.138306 1494.312012,1174.418701 1510.281006,1173.995850 
	C1516.389893,1173.834106 1520.893433,1175.735352 1525.542725,1179.499268 
	C1579.405029,1223.104736 1633.537231,1266.377075 1687.324585,1310.074219 
	C1712.953247,1330.895142 1741.735596,1343.190552 1774.779053,1344.979736 
	C1797.304443,1346.199585 1818.963257,1342.403442 1840.743286,1332.798096 
	C1836.265625,1329.056030 1832.439331,1325.960327 1828.727661,1322.732544 
	C1823.037231,1317.784058 1817.425659,1312.744873 1813.645264,1307.334351 
M213.549011,2122.511475 
	C210.690689,2128.504883 207.658981,2134.422852 205.017242,2140.510254 
	C201.600281,2148.384033 197.931503,2156.220703 195.427185,2164.396484 
	C193.300781,2171.338623 197.309616,2176.627441 204.388962,2178.229004 
	C211.912750,2179.930664 216.478287,2177.516602 220.091858,2169.680664 
	C226.063095,2156.732178 231.778976,2143.664062 237.890121,2130.782715 
	C248.420166,2108.587646 259.386505,2086.597900 269.772339,2064.336426 
	C281.542572,2039.107788 292.720062,2013.603149 304.442169,1988.351685 
	C316.468018,1962.445557 328.913513,1936.734619 341.041504,1910.875488 
	C353.866913,1883.529297 366.488983,1856.087646 379.284485,1828.727295 
	C390.801819,1804.099854 402.485260,1779.550171 413.999481,1754.921387 
	C423.983826,1733.564941 433.828217,1712.142944 443.744659,1690.754639 
	C454.351807,1667.876709 464.924927,1644.982788 475.601379,1622.137207 
	C482.205627,1608.005371 488.642242,1593.780396 495.751587,1579.903320 
	C505.252136,1561.358765 515.220093,1543.050171 525.192749,1524.752075 
	C536.269470,1504.428223 547.246155,1484.037598 558.889343,1464.038818 
	C568.215515,1448.019653 578.174988,1432.346191 588.392151,1416.875000 
	C601.747070,1396.652466 615.062500,1376.360474 629.429321,1356.860474 
	C648.939575,1330.379272 669.259277,1304.486816 689.541565,1278.584229 
	C714.514038,1246.692139 741.512878,1216.571777 770.388123,1188.158203 
	C776.206970,1182.432373 780.138855,1176.114502 782.233765,1167.961304 
	C791.094849,1133.473999 800.327271,1099.076050 809.925842,1064.785889 
	C818.745178,1033.279419 836.691956,1007.718933 862.551880,987.773743 
	C889.892639,966.686401 921.118896,956.510315 955.453552,956.271118 
	C1000.781128,955.955383 1046.112915,956.279114 1091.441650,956.064209 
	C1096.608398,956.039673 1102.041748,955.060364 1106.883423,953.262817 
	C1133.616089,943.337952 1159.904541,932.130676 1186.917603,923.069702 
	C1219.356812,912.188538 1252.525879,903.758362 1286.324951,897.830322 
	C1318.110107,892.255493 1349.907349,887.867493 1382.290161,887.992126 
	C1450.616943,888.254944 1518.945679,888.073975 1587.273560,888.065186 
	C1590.270874,888.064819 1593.321533,888.304932 1596.254517,887.843323 
	C1602.899414,886.797607 1606.914673,881.241211 1606.570557,874.117310 
	C1606.229980,867.068848 1602.708130,863.743103 1594.988281,863.311279 
	C1592.662231,863.181213 1590.323120,863.278809 1587.989990,863.278809 
	C1530.661133,863.278076 1473.331177,863.049316 1416.004028,863.363098 
	C1381.060181,863.554382 1346.192505,862.472229 1311.333618,860.135498 
	C1281.770752,858.153625 1252.656738,853.889893 1223.839844,846.777344 
	C1182.716064,836.627197 1144.699341,820.467651 1111.011841,794.287842 
	C1096.707520,783.171509 1084.588623,770.257019 1073.575928,756.123291 
	C1061.909302,741.150146 1051.626343,725.331970 1045.108032,707.327698 
	C1040.719360,695.206116 1035.189087,683.385681 1032.010986,670.959534 
	C1023.491333,637.648438 1021.359009,603.550781 1022.044434,569.275330 
	C1022.455750,548.712830 1024.739624,528.343628 1027.765381,507.964172 
	C1032.156372,478.389465 1038.594849,449.336121 1046.819458,420.653229 
	C1050.557373,407.617676 1054.699707,394.679413 1059.187866,381.882660 
	C1064.339478,367.193817 1069.388428,352.403717 1075.712524,338.205811 
	C1086.918213,313.048859 1099.192261,288.370178 1110.760864,263.371765 
	C1122.315186,238.403915 1133.428711,213.232071 1144.969116,188.257645 
	C1154.007446,168.697754 1163.416260,149.309189 1172.636230,129.833054 
	C1184.562500,104.640488 1196.565308,79.483047 1208.267944,54.186821 
	C1210.011719,50.417759 1211.175171,45.945156 1211.044800,41.847782 
	C1210.857056,35.950848 1206.667358,32.613796 1200.530640,31.781963 
	C1193.277222,30.798748 1189.044678,33.449623 1185.781982,40.735767 
	C1179.959961,53.737301 1174.161499,66.751572 1168.136353,79.659325 
	C1156.775879,103.996971 1145.213867,128.240372 1133.824097,152.564331 
	C1120.600464,180.804077 1107.446289,209.076340 1094.311890,237.357712 
	C1086.073120,255.097809 1078.387085,273.111755 1069.621460,290.585693 
	C1058.785400,312.187042 1047.358887,333.506042 1035.670288,354.661285 
	C1027.200928,369.990051 1018.367920,385.163727 1008.838684,399.849609 
	C996.006409,419.625763 982.770691,439.172302 968.933655,458.255798 
	C953.177795,479.985413 936.888855,501.350220 920.210205,522.380737 
	C910.317444,534.854736 899.343628,546.484619 888.643738,558.301880 
	C874.217651,574.234375 859.917175,590.303345 844.922668,605.689941 
	C835.690552,615.163452 824.759216,622.976257 815.478149,632.407898 
	C794.938049,653.281067 772.060913,671.382263 749.029053,689.250549 
	C723.303650,709.208557 696.816040,728.202576 668.600525,744.550964 
	C647.642517,756.694214 626.573730,768.709045 605.031311,779.761536 
	C587.645813,788.681213 569.561279,796.266052 551.640503,804.108643 
	C519.907349,817.996033 487.004364,828.558594 453.525970,837.250610 
	C413.928009,847.531372 373.822968,855.243164 332.949219,858.175232 
	C305.132599,860.170593 277.286652,862.775635 249.433701,863.047607 
	C178.446091,863.740662 107.447205,863.278076 36.452824,863.279053 
	C33.786407,863.279114 31.109892,863.144592 28.455503,863.326721 
	C21.056656,863.834229 16.329872,868.891663 16.159668,876.304932 
	C16.007395,882.937256 20.758482,887.582031 28.288746,888.041748 
	C30.613407,888.183594 32.953716,888.071655 35.286858,888.071655 
	C99.281792,888.072144 163.276718,888.067322 227.271652,888.074402 
	C252.872665,888.077209 278.415619,888.325012 303.963684,891.085510 
	C332.447937,894.163391 360.451782,898.837891 387.670837,907.981750 
	C408.527618,914.988281 428.457214,923.910095 446.670807,936.255371 
	C463.506592,947.666626 478.357239,961.200684 491.761993,976.737549 
	C510.663452,998.645386 524.502258,1023.149048 534.295410,1050.089966 
	C545.917603,1082.062134 552.313660,1115.162231 553.921570,1149.125977 
	C554.790222,1167.474365 556.017822,1185.891479 555.295837,1204.207031 
	C554.462158,1225.355591 552.270996,1246.505371 549.557922,1267.511108 
	C546.162537,1293.799438 542.274170,1320.060913 537.393921,1346.108398 
	C533.563354,1366.553467 528.305847,1386.762451 522.972351,1406.888062 
	C511.587952,1449.846802 498.491943,1492.305786 482.482544,1533.775757 
	C470.191650,1565.613403 457.273102,1597.219482 444.033783,1628.676147 
	C436.836151,1645.777588 428.330627,1662.326172 420.513519,1679.169800 
	C399.839783,1723.716309 379.297028,1768.323853 358.548401,1812.835327 
	C346.635071,1838.392700 334.270996,1863.740234 322.378632,1889.307251 
	C301.812225,1933.522461 281.551636,1977.879883 260.978088,2022.091675 
	C245.571945,2055.198975 229.875900,2088.171387 213.549011,2122.511475 
M4047.391846,1020.402893 
	C4052.214600,1001.249634 4057.037109,982.096375 4061.954834,962.565430 
	C4059.484131,962.390869 4058.168213,962.216431 4056.852051,962.216431 
	C3927.224121,962.214844 3797.594971,961.872559 3667.968994,962.387085 
	C3603.426758,962.643188 3547.117676,1006.268555 3530.027588,1068.565918 
	C3508.822998,1145.861816 3488.413818,1223.375732 3467.675049,1300.799316 
	C3467.183594,1302.634277 3466.859619,1304.514282 3466.374023,1306.759521 
	C3493.847168,1306.759521 3520.657715,1306.759521 3547.643799,1306.759521 
	C3548.542236,1303.779663 3549.376221,1301.268677 3550.057373,1298.716919 
	C3568.159912,1230.916626 3586.680420,1163.223511 3604.156982,1095.262085 
	C3613.182861,1060.162842 3642.065674,1040.873901 3674.841553,1041.165771 
	C3766.473877,1041.981934 3858.117676,1041.449585 3949.757080,1041.449463 
	C3953.003174,1041.449463 3956.249512,1041.449463 3960.384033,1041.449463 
	C3955.638428,1059.935669 3951.196289,1077.240723 3946.532471,1095.409546 
	C3942.500977,1095.409546 3938.916260,1095.408569 3935.331543,1095.409790 
	C3881.014648,1095.427979 3826.690430,1094.909424 3772.382568,1095.617676 
	C3719.415283,1096.308350 3678.706055,1120.029175 3649.932129,1164.374512 
	C3648.176270,1167.080688 3646.818115,1170.045044 3644.823975,1173.720581 
	C3647.712402,1173.902344 3649.584229,1174.117798 3651.456543,1174.122192 
	C3664.452637,1174.152100 3677.482422,1174.706421 3690.433594,1173.943481 
	C3699.439941,1173.412720 3706.022461,1176.484863 3712.840576,1182.028809 
	C3765.567383,1224.901367 3818.689697,1267.287354 3871.426025,1310.148193 
	C3897.050293,1330.974243 3925.853760,1343.223877 3958.889893,1344.986694 
	C3981.380615,1346.187012 4003.009277,1342.405640 4024.971191,1332.671753 
	C3959.485840,1279.924072 3894.886230,1227.889526 3830.286377,1175.855103 
	C3830.551758,1175.306885 3830.816895,1174.758667 3831.082275,1174.210449 
	C3889.910400,1174.210449 3948.738281,1174.210449 4008.002930,1174.210449 
	C4021.030273,1123.111572 4033.925537,1072.531372 4047.391846,1020.402893 
M2643.000000,962.196960 
	C2610.090332,962.196960 2577.180664,962.196960 2543.765625,962.196960 
	C2536.657715,988.695007 2529.721436,1014.553955 2522.465088,1041.604736 
	C2594.410645,1041.604736 2664.869385,1041.604736 2735.665039,1041.604736 
	C2719.759033,1085.341431 2710.329834,1129.937134 2698.155029,1173.748657 
	C2685.901367,1217.843750 2674.422607,1262.153809 2662.452637,1306.937500 
	C2690.261475,1306.937500 2716.793701,1306.937500 2743.845215,1306.937500 
	C2749.291260,1286.770142 2754.666260,1266.885986 2760.030518,1246.998901 
	C2773.977051,1195.293701 2787.861084,1143.571655 2801.886963,1091.888062 
	C2808.849365,1066.233765 2825.266113,1049.722900 2851.076660,1043.312378 
	C2858.066406,1041.576294 2865.595703,1041.528687 2872.877686,1041.525635 
	C3086.843018,1041.438354 3300.808105,1041.454834 3514.773438,1041.454712 
	C3518.726074,1041.454712 3522.678955,1041.454712 3527.163818,1041.454712 
	C3533.871094,1014.905457 3540.421631,988.976196 3547.187012,962.196960 
	C3245.511963,962.196960 2945.255859,962.196960 2643.000000,962.196960 
M1057.016113,1124.046143 
	C1053.017578,1124.055908 1049.011963,1123.913696 1045.021606,1124.098633 
	C991.414490,1126.582642 950.480896,1150.617676 922.421021,1196.406860 
	C921.332642,1198.182983 920.877563,1200.347412 920.136902,1202.305664 
	C921.194336,1202.734741 921.479309,1202.951660 921.764404,1202.951904 
	C1013.737183,1203.017944 1105.709961,1203.068481 1197.682739,1203.132080 
	C1198.666748,1203.132812 1199.656494,1203.267578 1200.631470,1203.417480 
	C1200.929077,1203.463135 1201.216064,1203.738525 1201.454102,1203.965088 
	C1201.670044,1204.170898 1201.812988,1204.453613 1202.415527,1205.309082 
	C1194.627319,1237.569580 1184.936279,1269.888672 1177.391602,1303.372070 
	C1180.791626,1302.678223 1182.749023,1302.335938 1184.675171,1301.865479 
	C1185.962402,1301.550903 1187.205200,1301.054443 1188.467773,1300.638672 
	C1241.134399,1283.286133 1274.050781,1247.432007 1287.875366,1193.974854 
	C1304.530151,1129.573853 1320.951416,1065.112549 1337.435547,1000.667542 
	C1340.636719,988.152954 1343.663574,975.593750 1346.872070,962.646912 
	C1343.985596,962.457031 1342.016235,962.214050 1340.046997,962.213928 
	C1211.415039,962.203674 1082.782471,961.955872 954.151550,962.327881 
	C888.360718,962.518127 832.113281,1005.626648 814.662354,1069.144775 
	C793.516296,1146.112305 773.211365,1223.311035 752.605408,1300.426514 
	C752.062744,1302.457275 752.246765,1304.682373 752.076904,1307.023071 
	C779.077576,1307.023071 805.308472,1307.023071 831.866028,1307.023071 
	C832.675903,1304.632202 833.531189,1302.498413 834.126099,1300.294556 
	C852.758667,1231.259644 871.714355,1162.308838 889.818665,1093.135498 
	C897.933899,1062.128662 925.235474,1041.103394 957.018066,1041.276733 
	C1050.323486,1041.785645 1143.633423,1041.450195 1236.941650,1041.485107 
	C1239.403931,1041.486084 1241.866089,1041.940430 1245.145142,1042.263916 
	C1237.876831,1070.029053 1230.837646,1096.918945 1223.736450,1124.046143 
	C1168.267944,1124.046143 1113.639282,1124.046143 1057.016113,1124.046143 
M3370.239502,1305.348511 
	C3418.641602,1294.980713 3468.521973,1257.767212 3473.261719,1228.599365 
	C3306.420410,1228.599365 3139.559082,1228.599365 2972.412354,1228.599365 
	C2965.437744,1254.769287 2958.545898,1280.628174 2951.413818,1307.388916 
	C2956.511475,1307.388916 2960.147949,1307.388916 2963.784424,1307.388916 
	C3086.395752,1307.388916 3209.006836,1307.438477 3331.618164,1307.312744 
	C3343.921387,1307.300171 3356.223633,1306.225952 3370.239502,1305.348511 
M3253.000244,1095.492920 
	C3171.439941,1095.492920 3089.879639,1095.492920 3008.117920,1095.492920 
	C3001.029053,1122.033081 2994.189697,1147.639160 2987.246094,1173.635254 
	C3128.380615,1173.635254 3268.492432,1173.635254 3409.060547,1173.635254 
	C3408.589600,1172.158447 3408.451904,1171.181885 3407.999023,1170.384644 
	C3385.818359,1131.356934 3352.816406,1106.553101 3308.740967,1098.411987 
	C3291.244629,1095.180176 3272.938232,1096.335083 3253.000244,1095.492920 
M2385.329834,1154.096191 
	C2371.620361,1204.621704 2357.910889,1255.147095 2343.784912,1307.207275 
	C2349.869629,1305.572754 2354.410645,1304.737183 2358.671631,1303.149780 
	C2409.537354,1284.199463 2441.593750,1247.967896 2455.781982,1195.943481 
	C2472.668213,1134.026367 2489.057617,1071.973633 2505.630859,1009.971375 
	C2509.812988,994.326050 2513.876221,978.649048 2518.083252,962.648071 
	C2490.640869,962.648071 2464.083984,962.648071 2436.989990,962.648071 
	C2419.859131,1026.123901 2402.803955,1089.319214 2385.329834,1154.096191 
M1997.714722,1520.869873 
	C2001.339478,1510.559448 2004.081055,1499.824219 2008.789673,1490.035034 
	C2016.448120,1474.112915 2037.458618,1463.823120 2054.727051,1466.153809 
	C2062.788574,1467.241943 2066.232666,1471.949585 2064.135986,1479.899414 
	C2061.510742,1489.853882 2058.465332,1499.698730 2055.527832,1509.568970 
	C2051.787842,1522.135498 2047.974609,1534.680054 2044.038086,1547.748291 
	C2052.635010,1547.748291 2060.198975,1547.748291 2067.961914,1547.748291 
	C2073.201172,1531.394775 2078.201904,1515.264526 2083.540283,1499.246948 
	C2091.181152,1476.321411 2106.916992,1465.404663 2130.769043,1466.116699 
	C2142.433105,1466.464844 2145.973633,1471.355225 2142.588135,1482.822754 
	C2137.328613,1500.636963 2131.895264,1518.399780 2126.604736,1536.204956 
	C2125.510498,1539.887085 2124.719971,1543.659302 2123.710205,1547.708984 
	C2132.093262,1547.708984 2139.681885,1547.708984 2147.375244,1547.708984 
	C2154.071777,1526.147339 2160.954346,1505.010986 2167.156006,1483.676636 
	C2171.641113,1468.246704 2164.849121,1456.805908 2149.112061,1454.227539 
	C2131.761963,1451.385010 2114.554932,1452.286377 2098.977295,1462.100586 
	C2095.919922,1464.026733 2092.852539,1465.936646 2089.292969,1468.165161 
	C2085.144043,1460.680542 2078.903076,1455.534790 2070.844971,1454.301025 
	C2055.558105,1451.960571 2040.294678,1451.768188 2026.390381,1460.474365 
	C2022.923828,1462.645142 2019.296997,1464.559448 2014.730225,1467.171387 
	C2015.591675,1462.583252 2016.170410,1459.500488 2016.864624,1455.802734 
	C2008.997803,1455.802734 2001.547363,1455.802734 1993.299561,1455.802734 
	C1984.028076,1486.323853 1974.768311,1516.806763 1965.416626,1547.592041 
	C1974.387085,1547.592041 1981.934204,1547.592041 1989.326416,1547.592041 
	C1992.108887,1538.860352 1994.726440,1530.646240 1997.714722,1520.869873 
M2920.043945,1484.804565 
	C2913.763184,1505.586182 2907.482422,1526.367676 2901.030273,1547.717285 
	C2910.033691,1547.717285 2917.611816,1547.717285 2925.052490,1547.717285 
	C2930.599854,1530.263428 2936.148438,1513.250610 2941.408203,1496.148926 
	C2948.760986,1472.242432 2972.979492,1464.473511 2990.953369,1466.211914 
	C2999.170898,1467.006592 3002.452148,1471.931030 3000.327637,1479.891357 
	C2998.188965,1487.905151 2995.826416,1495.861084 2993.456055,1503.810913 
	C2989.129150,1518.321899 2984.724609,1532.809692 2980.225098,1547.729248 
	C2988.672607,1547.729248 2996.230957,1547.729248 3004.443359,1547.729248 
	C3011.095215,1526.013794 3018.076416,1504.568970 3024.169434,1482.874390 
	C3028.494141,1467.475830 3021.502441,1456.517822 3005.543701,1454.123413 
	C2987.832031,1451.466064 2970.307617,1452.352295 2954.690186,1462.988525 
	C2952.075439,1464.769531 2949.301758,1466.316895 2946.353271,1468.124390 
	C2937.844727,1453.786743 2924.455811,1453.224731 2910.345947,1453.055420 
	C2895.839844,1452.881470 2884.275879,1459.638916 2871.724609,1467.626953 
	C2872.572021,1462.941895 2873.187988,1459.535522 2873.888184,1455.664551 
	C2865.852539,1455.664551 2858.357178,1455.664551 2850.376709,1455.664551 
	C2841.029053,1486.328735 2831.759277,1516.736572 2822.366943,1547.546509 
	C2830.687744,1547.546509 2838.470703,1547.546509 2846.089600,1547.546509 
	C2846.785156,1546.155273 2847.354492,1545.321899 2847.639648,1544.400635 
	C2852.346436,1529.198242 2856.872070,1513.938110 2861.729736,1498.784302 
	C2869.288818,1475.204346 2890.694824,1465.768066 2908.002441,1466.107910 
	C2920.412354,1466.351562 2923.697021,1470.874756 2920.043945,1484.804565 
M2612.574707,1570.057983 
	C2609.242676,1570.057983 2605.830322,1570.517212 2602.597900,1569.949707 
	C2597.796143,1569.106567 2592.387451,1568.588989 2588.617676,1565.956055 
	C2585.388184,1563.700684 2584.097412,1558.669067 2581.493408,1554.058105 
	C2578.451904,1554.058105 2574.479492,1554.026367 2570.507568,1554.067261 
	C2566.656006,1554.106812 2562.804932,1554.220825 2559.095947,1554.299072 
	C2558.177002,1567.111938 2562.612061,1573.602173 2573.954102,1578.168701 
	C2588.258301,1583.927734 2603.266602,1584.117798 2618.181641,1583.211182 
	C2649.984131,1581.278076 2665.211182,1569.364746 2673.173828,1541.941528 
	C2678.997314,1521.885498 2685.405273,1501.999756 2691.469482,1482.012939 
	C2694.089355,1473.378418 2696.499756,1464.680176 2699.068359,1455.792969 
	C2690.974121,1455.792969 2684.102783,1455.792969 2677.216797,1455.792969 
	C2675.670410,1460.111450 2674.300049,1463.938110 2672.987793,1467.602905 
	C2666.493652,1463.572754 2660.855713,1459.405884 2654.657471,1456.391479 
	C2646.345947,1452.349487 2637.144043,1453.078125 2628.176758,1453.245117 
	C2604.956055,1453.677734 2586.333496,1463.713257 2573.068115,1482.286499 
	C2556.625000,1505.308960 2562.391846,1536.187744 2594.652344,1545.312378 
	C2609.647217,1549.553345 2624.904297,1548.776489 2639.452881,1542.166748 
	C2642.224365,1540.907715 2645.058594,1539.786011 2649.400635,1537.951538 
	C2647.092285,1544.357178 2645.606934,1549.076538 2643.705811,1553.622314 
	C2640.420166,1561.479736 2634.729248,1566.699341 2626.165039,1568.289551 
	C2622.261963,1569.014160 2618.310547,1569.476685 2612.574707,1570.057983 
M1279.226562,1458.676880 
	C1276.139771,1460.265869 1273.052979,1461.854736 1268.923096,1463.980591 
	C1269.282471,1460.282349 1269.487671,1458.170044 1269.735352,1455.620239 
	C1262.438721,1455.620239 1255.563965,1455.620239 1248.016479,1455.620239 
	C1235.132812,1497.982178 1221.852905,1540.042969 1209.213989,1582.997314 
	C1218.080811,1582.997314 1225.332642,1582.997314 1233.048706,1582.997314 
	C1238.015869,1566.977417 1242.930298,1551.127563 1247.959351,1534.907715 
	C1266.248413,1548.536987 1272.177612,1550.598633 1292.017456,1549.291870 
	C1314.297974,1547.824219 1346.263062,1530.910156 1351.228271,1497.724365 
	C1354.133179,1478.308228 1346.301758,1461.418579 1325.503418,1455.526489 
	C1310.452637,1451.262695 1295.340698,1451.674194 1279.226562,1458.676880 
M2437.409424,1508.732544 
	C2427.931641,1519.381104 2431.621582,1535.752808 2445.418945,1543.145264 
	C2448.321289,1544.700317 2451.401367,1546.099121 2454.565186,1546.961304 
	C2468.977783,1550.889648 2483.469727,1550.678223 2497.738525,1546.442627 
	C2505.187988,1544.231201 2512.353027,1541.061768 2519.934326,1538.216919 
	C2520.981689,1541.553589 2521.947998,1544.631592 2523.041992,1548.115601 
	C2529.622803,1548.115601 2535.923584,1548.148071 2542.223633,1548.088379 
	C2543.493896,1548.076416 2544.760742,1547.715088 2546.015625,1547.516968 
	C2544.000000,1528.724609 2544.106934,1527.812134 2550.539307,1508.549316 
	C2552.329834,1503.187744 2554.374268,1497.896362 2555.873291,1492.454590 
	C2561.586914,1471.714355 2559.093262,1464.336182 2535.884277,1456.118896 
	C2532.788574,1455.022949 2529.420898,1454.198730 2526.164062,1454.143433 
	C2513.228516,1453.923706 2500.262451,1453.589600 2487.359375,1454.275635 
	C2481.544678,1454.584717 2475.555664,1456.518555 2470.167725,1458.897949 
	C2459.810547,1463.472046 2450.502930,1469.607666 2445.541748,1481.669922 
	C2454.146973,1481.669922 2461.917480,1481.669922 2469.800293,1481.669922 
	C2483.211182,1466.001953 2508.029297,1460.610352 2526.755127,1469.390869 
	C2533.276611,1472.448853 2535.027344,1475.365234 2534.173584,1481.749634 
	C2533.378662,1487.695801 2531.940674,1489.484619 2524.301025,1490.178833 
	C2509.460938,1491.527100 2494.558838,1492.180054 2479.691650,1493.248657 
	C2464.659424,1494.328735 2449.785645,1495.983643 2437.409424,1508.732544 
M2225.563965,1548.917236 
	C2236.280273,1545.640991 2246.996582,1542.364746 2258.033447,1538.990479 
	C2258.767090,1541.172363 2259.811768,1544.278809 2260.858643,1547.391846 
	C2268.628662,1547.391846 2276.357910,1547.391846 2284.883057,1547.391846 
	C2279.953369,1534.876709 2283.614502,1523.820068 2287.249512,1512.760132 
	C2289.121094,1507.065796 2291.143066,1501.414673 2292.805176,1495.659668 
	C2294.179688,1490.901123 2295.406982,1486.064331 2296.200439,1481.181152 
	C2297.656494,1472.216919 2294.148438,1465.255249 2285.954834,1461.577759 
	C2279.059326,1458.482788 2271.788574,1455.050659 2264.446289,1454.383911 
	C2251.596680,1453.217529 2238.514160,1453.345947 2225.624268,1454.266602 
	C2213.864746,1455.106323 2203.091797,1459.774902 2193.963867,1467.560669 
	C2189.506836,1471.362549 2185.230713,1475.360352 2184.138916,1482.004883 
	C2192.346680,1482.004883 2199.964111,1482.004883 2205.339111,1482.004883 
	C2212.484863,1476.916016 2217.582764,1471.707153 2223.774414,1469.216431 
	C2235.405029,1464.537964 2247.800049,1464.869751 2260.006104,1467.730225 
	C2262.238281,1468.253418 2264.459229,1469.112671 2266.478271,1470.200928 
	C2271.719238,1473.025879 2273.180176,1476.596313 2272.060791,1482.676880 
	C2271.162109,1487.561523 2268.768311,1490.132446 2263.348145,1490.263672 
	C2255.737305,1490.447998 2248.152100,1491.514404 2240.544434,1492.038452 
	C2229.618164,1492.791382 2218.626709,1492.926025 2207.764893,1494.194580 
	C2196.814941,1495.473389 2186.151855,1498.150635 2177.802979,1506.293823 
	C2167.436768,1516.404907 2167.190674,1530.145874 2178.472412,1539.256104 
	C2183.658936,1543.444458 2190.524170,1546.536743 2197.077881,1547.807007 
	C2205.766602,1549.490601 2214.894775,1548.904175 2225.563965,1548.917236 
M2731.471680,1506.114746 
	C2760.749512,1506.114746 2790.027100,1506.114746 2819.361572,1506.114746 
	C2822.521484,1496.086670 2823.096680,1486.674316 2819.121338,1477.449951 
	C2814.165527,1465.949097 2804.783936,1459.433472 2793.170410,1455.980103 
	C2778.503174,1451.618652 2763.364990,1451.792358 2748.696777,1454.694458 
	C2723.842285,1459.611694 2705.553711,1473.396240 2697.959961,1498.567871 
	C2691.913574,1518.610962 2701.020508,1536.918945 2720.754150,1544.210449 
	C2745.040771,1553.184448 2769.030518,1551.651855 2791.855957,1539.406860 
	C2800.780273,1534.619019 2809.367676,1528.748901 2813.765869,1517.264893 
	C2806.120117,1517.264893 2799.200684,1517.072754 2792.306885,1517.406616 
	C2790.685303,1517.485107 2788.875732,1519.080200 2787.617432,1520.415649 
	C2776.909180,1531.783081 2763.723877,1536.533691 2748.243652,1536.124390 
	C2730.261475,1535.648926 2720.163574,1525.177856 2720.837402,1506.114746 
	C2723.733887,1506.114746 2726.667236,1506.114746 2731.471680,1506.114746 
M1623.052002,1472.052246 
	C1618.497925,1478.515503 1612.883789,1484.483154 1609.587280,1491.534302 
	C1599.425293,1513.270752 1607.210938,1535.896362 1628.368896,1543.729614 
	C1658.801025,1554.996704 1687.703247,1551.392822 1713.515625,1530.606079 
	C1717.529907,1527.373291 1720.668457,1523.292603 1722.502075,1517.235718 
	C1716.096313,1517.235718 1710.830078,1517.370972 1705.574585,1517.192749 
	C1701.379517,1517.050659 1698.418091,1518.167358 1695.267212,1521.536865 
	C1683.475586,1534.146118 1668.135620,1538.007812 1651.617798,1535.712402 
	C1638.259766,1533.856323 1626.719849,1522.266235 1630.902954,1505.686279 
	C1663.400269,1505.686279 1696.165894,1505.686279 1728.647827,1505.686279 
	C1736.919312,1472.682007 1716.379517,1457.217896 1693.358154,1454.137695 
	C1686.476929,1453.216919 1679.434204,1453.273682 1672.465820,1453.280151 
	C1654.204102,1453.297241 1637.868652,1458.770874 1623.052002,1472.052246 
M3084.799316,1536.064087 
	C3082.466553,1536.061768 3080.114502,1536.253174 3077.803955,1536.025879 
	C3062.932617,1534.563110 3050.673828,1522.176758 3054.747803,1505.746704 
	C3087.283203,1505.746704 3120.087891,1505.746704 3152.602295,1505.746704 
	C3160.989746,1472.757812 3140.413330,1456.872437 3117.326172,1454.248169 
	C3106.514404,1453.019165 3095.227051,1452.664062 3084.536133,1454.341797 
	C3058.739746,1458.389648 3039.534912,1471.804565 3031.251709,1497.720459 
	C3024.864990,1517.703735 3033.797607,1536.054077 3053.015381,1544.183472 
	C3064.013428,1548.835938 3075.456055,1549.436768 3087.157959,1549.402710 
	C3106.311035,1549.346802 3122.866699,1542.635010 3137.462646,1530.656616 
	C3141.461914,1527.374878 3144.638184,1523.325684 3146.526123,1517.237549 
	C3139.468262,1517.237549 3133.531982,1517.411865 3127.612549,1517.170044 
	C3124.242920,1517.032471 3122.229492,1518.470947 3120.030518,1520.851685 
	C3111.053955,1530.569214 3099.745850,1535.471558 3084.799316,1536.064087 
M2302.228027,1548.110229 
	C2308.797607,1548.110229 2315.366943,1548.110229 2322.184326,1548.110229 
	C2327.067139,1532.136963 2331.404785,1516.827393 2336.432861,1501.748047 
	C2345.072998,1475.835449 2364.691406,1464.415527 2390.825439,1466.228027 
	C2401.511963,1466.969116 2406.445068,1472.244507 2402.863037,1482.625488 
	C2398.753906,1494.535278 2395.336182,1506.683228 2391.600342,1518.722290 
	C2388.630127,1528.293701 2385.633057,1537.856812 2382.522217,1547.825928 
	C2391.183594,1547.825928 2398.457520,1547.825928 2406.790283,1547.825928 
	C2413.685547,1525.762939 2421.106689,1503.790649 2427.292480,1481.475952 
	C2430.373535,1470.360352 2423.908936,1460.395508 2412.998047,1456.144897 
	C2409.922363,1454.946777 2406.662354,1453.852539 2403.407959,1453.543701 
	C2387.596680,1452.043213 2372.177246,1453.450806 2357.816162,1460.963257 
	C2354.075195,1462.920288 2350.474365,1465.145752 2345.496826,1468.000488 
	C2346.477051,1463.028076 2347.146484,1459.631958 2347.921143,1455.701660 
	C2340.587158,1455.701660 2333.758057,1455.701660 2326.544189,1455.701660 
	C2317.445801,1485.328613 2308.373779,1514.792480 2299.434814,1544.296875 
	C2299.122314,1545.328979 2300.135498,1546.762695 2302.228027,1548.110229 
M1779.763428,1549.348145 
	C1790.764771,1549.950439 1801.680176,1549.455444 1812.234253,1545.999756 
	C1828.660645,1540.621460 1841.085205,1530.725586 1848.309692,1513.668213 
	C1839.560181,1513.668213 1831.754028,1513.668213 1824.033081,1513.668213 
	C1814.960327,1528.884277 1802.457031,1537.141113 1784.524048,1536.113525 
	C1770.787354,1535.326538 1761.019653,1526.039062 1761.850586,1512.364136 
	C1763.237793,1489.535156 1776.697754,1464.047607 1809.247314,1466.036011 
	C1822.697144,1466.857666 1829.891235,1472.071899 1833.079346,1484.771240 
	C1840.677368,1484.771240 1848.198975,1484.771240 1855.701416,1484.771240 
	C1855.706177,1471.173706 1849.425171,1462.765503 1836.439697,1457.256104 
	C1823.655640,1451.831909 1810.195435,1452.380127 1797.087280,1453.476929 
	C1769.215942,1455.809204 1746.165405,1470.161865 1738.787598,1500.555298 
	C1733.376343,1522.847656 1743.365967,1540.404175 1765.312378,1546.847900 
	C1769.422485,1548.054565 1773.747192,1548.530762 1779.763428,1549.348145 
M3345.724854,1437.153076 
	C3347.035645,1432.878418 3348.346436,1428.603882 3350.242188,1422.421631 
	C3343.550293,1424.884888 3338.770752,1426.922119 3333.824707,1428.401855 
	C3325.573486,1430.870728 3319.980713,1435.267456 3319.035889,1444.572754 
	C3318.684326,1448.034424 3316.666504,1451.327026 3315.209229,1455.230957 
	C3309.272705,1455.230957 3303.714844,1455.230957 3297.665527,1455.230957 
	C3296.288574,1459.450562 3295.087402,1463.131348 3293.564209,1467.798828 
	C3299.830078,1467.798828 3305.045898,1467.798828 3311.228271,1467.798828 
	C3310.078613,1472.192017 3309.251221,1475.682739 3308.250000,1479.122925 
	C3303.337402,1496.002686 3298.198730,1512.819336 3293.507568,1529.760254 
	C3290.982666,1538.878784 3292.893799,1542.583374 3301.462646,1546.225342 
	C3313.261719,1551.240356 3325.352295,1549.860962 3337.504150,1547.999268 
	C3338.617188,1543.533081 3339.543457,1539.817383 3340.480469,1536.057129 
	C3334.836426,1536.057129 3329.918945,1536.225586 3325.017578,1536.016235 
	C3318.271973,1535.728271 3316.687744,1533.810547 3318.518799,1527.118774 
	C3321.843994,1514.966309 3325.600830,1502.931519 3329.211670,1490.857788 
	C3331.468262,1483.311157 3333.787354,1475.782959 3336.251709,1467.676270 
	C3344.014648,1467.676270 3351.213135,1467.676270 3358.670166,1467.676270 
	C3359.778564,1463.292847 3360.710693,1459.607788 3361.904785,1454.885498 
	C3354.339844,1454.885498 3347.804199,1454.885498 3340.307861,1454.885498 
	C3342.183838,1448.786743 3343.735840,1443.742065 3345.724854,1437.153076 
M1901.555298,1537.553345 
	C1900.350464,1536.913208 1899.157471,1535.755127 1897.938477,1535.726929 
	C1893.633789,1535.627197 1889.302246,1536.223755 1885.014282,1535.976318 
	C1879.650146,1535.667114 1877.965576,1533.527954 1879.433350,1528.286987 
	C1885.032227,1508.294434 1890.918701,1488.382324 1896.809937,1468.052856 
	C1904.757935,1468.052856 1912.011475,1468.052856 1919.396851,1468.052856 
	C1920.539429,1463.755249 1921.532349,1460.020752 1922.827026,1455.151367 
	C1915.445801,1455.151367 1908.977051,1455.151367 1901.193848,1455.151367 
	C1904.572998,1444.045044 1907.574951,1434.178589 1911.210327,1422.230103 
	C1902.297607,1425.745117 1895.469849,1428.740967 1888.426514,1431.090454 
	C1884.799438,1432.300293 1883.055786,1434.457275 1882.012085,1437.843506 
	C1880.366089,1443.184692 1880.020386,1450.449951 1876.345947,1453.234375 
	C1872.291382,1456.306885 1865.103516,1455.244629 1858.356323,1456.100586 
	C1857.456421,1459.464478 1856.417847,1463.346680 1855.245117,1467.730103 
	C1861.557373,1468.041992 1866.644775,1468.293457 1872.214233,1468.568604 
	C1871.014526,1472.923706 1870.113525,1476.433228 1869.080444,1479.903564 
	C1864.358765,1495.764282 1859.408325,1511.559937 1854.917969,1527.485596 
	C1851.601074,1539.249634 1854.247314,1544.634644 1865.903564,1547.591187 
	C1872.828247,1549.347778 1880.327271,1549.207520 1887.571899,1549.249268 
	C1898.071411,1549.309937 1898.072876,1549.051025 1901.555298,1537.553345 
M1604.367310,1461.665527 
	C1604.951782,1459.900757 1605.536133,1458.135864 1606.348511,1455.682617 
	C1597.907227,1455.682617 1590.421021,1455.682617 1582.980347,1455.682617 
	C1582.032837,1457.754395 1580.991455,1459.484741 1580.422363,1461.358643 
	C1572.815796,1486.399170 1565.329468,1511.476196 1557.682373,1536.504272 
	C1555.645996,1543.169434 1553.274536,1549.738770 1550.865112,1556.281616 
	C1547.991699,1564.084351 1542.346802,1567.719971 1533.950684,1567.273560 
	C1529.365112,1567.029907 1524.755981,1567.230225 1519.611938,1567.230225 
	C1518.218384,1572.097046 1516.987915,1576.393677 1515.326294,1582.196289 
	C1526.011230,1582.598633 1535.579468,1583.706177 1545.045776,1583.132690 
	C1557.855347,1582.356812 1567.735596,1576.249878 1572.704224,1563.740967 
	C1573.923340,1560.671753 1575.208008,1557.613159 1576.175049,1554.461426 
	C1585.499023,1524.071777 1594.761597,1493.663208 1604.367310,1461.665527 
M1599.005127,1440.117554 
	C1602.970703,1440.117554 1606.936157,1440.117554 1611.492310,1440.117554 
	C1613.344849,1433.858154 1615.080322,1427.994019 1616.906372,1421.824219 
	C1608.213867,1421.824219 1600.700073,1421.824219 1593.072754,1421.824219 
	C1591.238770,1427.999512 1589.558105,1433.658447 1587.639771,1440.117554 
	C1591.278687,1440.117554 1594.227295,1440.117554 1599.005127,1440.117554 
M921.415710,1059.741577 
	C923.263855,1058.307495 925.112000,1056.873413 926.960083,1055.439453 
	C926.591431,1054.938843 926.222717,1054.438232 925.854065,1053.937622 
	C923.532532,1055.427490 921.210999,1056.917358 918.889465,1058.407227 
	C919.408386,1059.083862 919.927307,1059.760498 921.415710,1059.741577 
z"/>
<path fill="#6812A0" opacity="1.000000" stroke="none" 
	d="
M213.928986,2121.857666 
	C229.875900,2088.171387 245.571945,2055.198975 260.978088,2022.091675 
	C281.551636,1977.879883 301.812225,1933.522461 322.378632,1889.307251 
	C334.270996,1863.740234 346.635071,1838.392700 358.548401,1812.835327 
	C379.297028,1768.323853 399.839783,1723.716309 420.513519,1679.169800 
	C428.330627,1662.326172 436.836151,1645.777588 444.033783,1628.676147 
	C457.273102,1597.219482 470.191650,1565.613403 482.482544,1533.775757 
	C498.491943,1492.305786 511.587952,1449.846802 522.972351,1406.888062 
	C528.305847,1386.762451 533.563354,1366.553467 537.393921,1346.108398 
	C542.274170,1320.060913 546.162537,1293.799438 549.557922,1267.511108 
	C552.270996,1246.505371 554.462158,1225.355591 555.295837,1204.207031 
	C556.017822,1185.891479 554.790222,1167.474365 553.921570,1149.125977 
	C552.313660,1115.162231 545.917603,1082.062134 534.295410,1050.089966 
	C524.502258,1023.149048 510.663452,998.645386 491.761993,976.737549 
	C478.357239,961.200684 463.506592,947.666626 446.670807,936.255371 
	C428.457214,923.910095 408.527618,914.988281 387.670837,907.981750 
	C360.451782,898.837891 332.447937,894.163391 303.963684,891.085510 
	C278.415619,888.325012 252.872665,888.077209 227.271652,888.074402 
	C163.276718,888.067322 99.281792,888.072144 35.286858,888.071655 
	C32.953716,888.071655 30.613407,888.183594 28.288746,888.041748 
	C20.758482,887.582031 16.007395,882.937256 16.159668,876.304932 
	C16.329872,868.891663 21.056656,863.834229 28.455503,863.326721 
	C31.109892,863.144592 33.786407,863.279114 36.452824,863.279053 
	C107.447205,863.278076 178.446091,863.740662 249.433701,863.047607 
	C277.286652,862.775635 305.132599,860.170593 332.949219,858.175232 
	C373.822968,855.243164 413.928009,847.531372 453.525970,837.250610 
	C487.004364,828.558594 519.907349,817.996033 551.640503,804.108643 
	C569.561279,796.266052 587.645813,788.681213 605.031311,779.761536 
	C626.573730,768.709045 647.642517,756.694214 668.600525,744.550964 
	C696.816040,728.202576 723.303650,709.208557 749.029053,689.250549 
	C772.060913,671.382263 794.938049,653.281067 815.478149,632.407898 
	C824.759216,622.976257 835.690552,615.163452 844.922668,605.689941 
	C859.917175,590.303345 874.217651,574.234375 888.643738,558.301880 
	C899.343628,546.484619 910.317444,534.854736 920.210205,522.380737 
	C936.888855,501.350220 953.177795,479.985413 968.933655,458.255798 
	C982.770691,439.172302 996.006409,419.625763 1008.838684,399.849609 
	C1018.367920,385.163727 1027.200928,369.990051 1035.670288,354.661285 
	C1047.358887,333.506042 1058.785400,312.187042 1069.621460,290.585693 
	C1078.387085,273.111755 1086.073120,255.097809 1094.311890,237.357712 
	C1107.446289,209.076340 1120.600464,180.804077 1133.824097,152.564331 
	C1145.213867,128.240372 1156.775879,103.996971 1168.136353,79.659325 
	C1174.161499,66.751572 1179.959961,53.737301 1185.781982,40.735767 
	C1189.044678,33.449623 1193.277222,30.798748 1200.530640,31.781963 
	C1206.667358,32.613796 1210.857056,35.950848 1211.044800,41.847782 
	C1211.175171,45.945156 1210.011719,50.417759 1208.267944,54.186821 
	C1196.565308,79.483047 1184.562500,104.640488 1172.636230,129.833054 
	C1163.416260,149.309189 1154.007446,168.697754 1144.969116,188.257645 
	C1133.428711,213.232071 1122.315186,238.403915 1110.760864,263.371765 
	C1099.192261,288.370178 1086.918213,313.048859 1075.712524,338.205811 
	C1069.388428,352.403717 1064.339478,367.193817 1059.187866,381.882660 
	C1054.699707,394.679413 1050.557373,407.617676 1046.819458,420.653229 
	C1038.594849,449.336121 1032.156372,478.389465 1027.765381,507.964172 
	C1024.739624,528.343628 1022.455750,548.712830 1022.044434,569.275330 
	C1021.359009,603.550781 1023.491333,637.648438 1032.010986,670.959534 
	C1035.189087,683.385681 1040.719360,695.206116 1045.108032,707.327698 
	C1051.626343,725.331970 1061.909302,741.150146 1073.575928,756.123291 
	C1084.588623,770.257019 1096.707520,783.171509 1111.011841,794.287842 
	C1144.699341,820.467651 1182.716064,836.627197 1223.839844,846.777344 
	C1252.656738,853.889893 1281.770752,858.153625 1311.333618,860.135498 
	C1346.192505,862.472229 1381.060181,863.554382 1416.004028,863.363098 
	C1473.331177,863.049316 1530.661133,863.278076 1587.989990,863.278809 
	C1590.323120,863.278809 1592.662231,863.181213 1594.988281,863.311279 
	C1602.708130,863.743103 1606.229980,867.068848 1606.570557,874.117310 
	C1606.914673,881.241211 1602.899414,886.797607 1596.254517,887.843323 
	C1593.321533,888.304932 1590.270874,888.064819 1587.273560,888.065186 
	C1518.945679,888.073975 1450.616943,888.254944 1382.290161,887.992126 
	C1349.907349,887.867493 1318.110107,892.255493 1286.324951,897.830322 
	C1252.525879,903.758362 1219.356812,912.188538 1186.917603,923.069702 
	C1159.904541,932.130676 1133.616089,943.337952 1106.883423,953.262817 
	C1102.041748,955.060364 1096.608398,956.039673 1091.441650,956.064209 
	C1046.112915,956.279114 1000.781128,955.955383 955.453552,956.271118 
	C921.118896,956.510315 889.892639,966.686401 862.551880,987.773743 
	C836.691956,1007.718933 818.745178,1033.279419 809.925842,1064.785889 
	C800.327271,1099.076050 791.094849,1133.473999 782.233765,1167.961304 
	C780.138855,1176.114502 776.206970,1182.432373 770.388123,1188.158203 
	C741.512878,1216.571777 714.514038,1246.692139 689.541565,1278.584229 
	C669.259277,1304.486816 648.939575,1330.379272 629.429321,1356.860474 
	C615.062500,1376.360474 601.747070,1396.652466 588.392151,1416.875000 
	C578.174988,1432.346191 568.215515,1448.019653 558.889343,1464.038818 
	C547.246155,1484.037598 536.269470,1504.428223 525.192749,1524.752075 
	C515.220093,1543.050171 505.252136,1561.358765 495.751587,1579.903320 
	C488.642242,1593.780396 482.205627,1608.005371 475.601379,1622.137207 
	C464.924927,1644.982788 454.351807,1667.876709 443.744659,1690.754639 
	C433.828217,1712.142944 423.983826,1733.564941 413.999481,1754.921387 
	C402.485260,1779.550171 390.801819,1804.099854 379.284485,1828.727295 
	C366.488983,1856.087646 353.866913,1883.529297 341.041504,1910.875488 
	C328.913513,1936.734619 316.468018,1962.445557 304.442169,1988.351685 
	C292.720062,2013.603149 281.542572,2039.107788 269.772339,2064.336426 
	C259.386505,2086.597900 248.420166,2108.587646 237.890121,2130.782715 
	C231.778976,2143.664062 226.063095,2156.732178 220.091858,2169.680664 
	C216.478287,2177.516602 211.912750,2179.930664 204.388962,2178.229004 
	C197.309616,2176.627441 193.300781,2171.338623 195.427185,2164.396484 
	C197.931503,2156.220703 201.600281,2148.384033 205.017242,2140.510254 
	C207.658981,2134.422852 210.690689,2128.504883 213.928986,2121.857666 
z"/>
<path fill="#030202" opacity="1.000000" stroke="none" 
	d="
M1812.146484,1308.106201 
	C1817.619019,1286.884399 1822.950317,1265.625122 1828.591431,1244.448242 
	C1843.742188,1187.570068 1858.839355,1130.676392 1874.309570,1073.884644 
	C1889.251221,1019.033264 1923.847046,982.908875 1978.793945,967.460693 
	C1990.505371,964.168091 2003.065674,962.501160 2015.241455,962.467834 
	C2143.523926,962.116333 2271.807373,962.246887 2400.090576,962.261902 
	C2402.397949,962.262207 2404.705322,962.478210 2407.893555,962.637695 
	C2403.334717,980.373657 2398.872070,997.673157 2394.442627,1014.981201 
	C2387.681885,1041.400146 2380.857422,1067.803223 2374.236572,1094.257324 
	C2371.285400,1106.048950 2365.080566,1115.497070 2355.473633,1122.884521 
	C2347.032959,1129.375122 2338.745605,1136.064819 2329.529541,1143.346802 
	C2332.666748,1147.693848 2335.651855,1151.943359 2338.752441,1156.106445 
	C2349.014404,1169.884033 2351.474854,1184.846436 2346.743896,1201.424561 
	C2328.814697,1264.252563 2273.143799,1306.551147 2206.490967,1307.313477 
	C2176.839844,1307.652588 2147.181396,1307.383545 2117.526367,1307.379883 
	C2016.232666,1307.367310 1914.938965,1307.349854 1812.801514,1307.632812 
	C1811.957642,1307.931274 1812.146484,1308.106201 1812.146484,1308.106201 
M1919.045776,1212.138916 
	C1917.757080,1217.199097 1916.468384,1222.259399 1915.139160,1227.478760 
	C1917.028076,1227.807739 1917.998413,1228.124512 1918.968872,1228.124634 
	C2015.910034,1228.140991 2112.851562,1228.302612 2209.791992,1228.018555 
	C2236.833740,1227.939331 2261.244629,1209.057861 2269.835205,1183.091675 
	C2270.723633,1180.407104 2271.189697,1177.582642 2272.123291,1173.688965 
	C2177.683350,1173.688965 2084.349854,1173.688965 1990.085205,1173.688965 
	C1991.611084,1170.859497 1992.447510,1169.096436 1993.467651,1167.447144 
	C2022.125854,1121.115356 2063.532715,1096.350098 2118.149170,1095.662354 
	C2172.441162,1094.978516 2226.748047,1095.500854 2281.048584,1095.494263 
	C2284.632812,1095.493896 2288.217041,1095.494263 2292.425781,1095.494263 
	C2297.046631,1077.363525 2301.500244,1059.888794 2306.202393,1041.438110 
	C2301.247314,1041.438110 2297.626465,1041.438110 2294.005615,1041.438110 
	C2229.377930,1041.438110 2164.750488,1041.436157 2100.122803,1041.439087 
	C2071.806641,1041.440430 2043.486694,1041.158569 2015.175537,1041.537231 
	C1984.619507,1041.945801 1959.999634,1060.784668 1951.890991,1090.137695 
	C1940.824951,1130.196655 1930.317383,1170.409912 1919.045776,1212.138916 
z"/>
<path fill="#020202" opacity="1.000000" stroke="none" 
	d="
M4047.106445,1021.177002 
	C4033.925537,1072.531372 4021.030273,1123.111572 4008.002930,1174.210449 
	C3948.738281,1174.210449 3889.910400,1174.210449 3831.082275,1174.210449 
	C3830.816895,1174.758667 3830.551758,1175.306885 3830.286377,1175.855103 
	C3894.886230,1227.889526 3959.485840,1279.924072 4024.971191,1332.671753 
	C4003.009277,1342.405640 3981.380615,1346.187012 3958.889893,1344.986694 
	C3925.853760,1343.223877 3897.050293,1330.974243 3871.426025,1310.148193 
	C3818.689697,1267.287354 3765.567383,1224.901367 3712.840576,1182.028809 
	C3706.022461,1176.484863 3699.439941,1173.412720 3690.433594,1173.943481 
	C3677.482422,1174.706421 3664.452637,1174.152100 3651.456543,1174.122192 
	C3649.584229,1174.117798 3647.712402,1173.902344 3644.823975,1173.720581 
	C3646.818115,1170.045044 3648.176270,1167.080688 3649.932129,1164.374512 
	C3678.706055,1120.029175 3719.415283,1096.308350 3772.382568,1095.617676 
	C3826.690430,1094.909424 3881.014648,1095.427979 3935.331543,1095.409790 
	C3938.916260,1095.408569 3942.500977,1095.409546 3946.532471,1095.409546 
	C3951.196289,1077.240723 3955.638428,1059.935669 3960.384033,1041.449463 
	C3956.249512,1041.449463 3953.003174,1041.449463 3949.757080,1041.449463 
	C3858.117676,1041.449585 3766.473877,1041.981934 3674.841553,1041.165771 
	C3642.065674,1040.873901 3613.182861,1060.162842 3604.156982,1095.262085 
	C3586.680420,1163.223511 3568.159912,1230.916626 3550.057373,1298.716919 
	C3549.376221,1301.268677 3548.542236,1303.779663 3547.643799,1306.759521 
	C3520.657715,1306.759521 3493.847168,1306.759521 3466.374023,1306.759521 
	C3466.859619,1304.514282 3467.183594,1302.634277 3467.675049,1300.799316 
	C3488.413818,1223.375732 3508.822998,1145.861816 3530.027588,1068.565918 
	C3547.117676,1006.268555 3603.426758,962.643188 3667.968994,962.387085 
	C3797.594971,961.872559 3927.224121,962.214844 4056.852051,962.216431 
	C4058.168213,962.216431 4059.484131,962.390869 4061.954834,962.565430 
	C4057.037109,982.096375 4052.214600,1001.249634 4047.106445,1021.177002 
z"/>
<path fill="#020202" opacity="1.000000" stroke="none" 
	d="
M1811.869141,1307.837646 
	C1817.425659,1312.744873 1823.037231,1317.784058 1828.727661,1322.732544 
	C1832.439331,1325.960327 1836.265625,1329.056030 1840.743286,1332.798096 
	C1818.963257,1342.403442 1797.304443,1346.199585 1774.779053,1344.979736 
	C1741.735596,1343.190552 1712.953247,1330.895142 1687.324585,1310.074219 
	C1633.537231,1266.377075 1579.405029,1223.104736 1525.542725,1179.499268 
	C1520.893433,1175.735352 1516.389893,1173.834106 1510.281006,1173.995850 
	C1494.312012,1174.418701 1478.324341,1174.138306 1461.148804,1174.138306 
	C1462.447266,1171.180176 1463.159424,1168.801758 1464.430298,1166.773315 
	C1492.907104,1121.324341 1533.744263,1096.522461 1587.573364,1095.662109 
	C1641.885010,1094.794067 1696.220459,1095.431641 1750.545532,1095.409790 
	C1754.167358,1095.408325 1757.789185,1095.409546 1762.468750,1095.409546 
	C1767.077637,1077.555786 1771.597778,1060.045532 1776.398193,1041.449585 
	C1772.411011,1041.449585 1769.471436,1041.449585 1766.531982,1041.449585 
	C1673.879272,1041.450195 1581.226562,1041.482910 1488.573853,1041.432617 
	C1458.925293,1041.416626 1437.683350,1054.690674 1424.970337,1081.396729 
	C1422.845947,1085.859375 1421.587891,1090.780151 1420.300293,1095.588257 
	C1402.230591,1163.063843 1384.227783,1230.557373 1366.195557,1298.042847 
	C1365.429443,1300.909668 1364.535034,1303.742188 1363.652832,1306.752686 
	C1336.486572,1306.752686 1309.695312,1306.752686 1282.059937,1306.752686 
	C1287.097534,1287.782959 1291.909546,1269.525513 1296.796021,1251.287964 
	C1312.549316,1192.490845 1328.274536,1133.685913 1344.116211,1074.912598 
	C1359.022217,1019.611084 1393.606201,983.140564 1448.908813,967.469971 
	C1460.614502,964.153015 1473.181274,962.470276 1485.358032,962.436401 
	C1614.004395,962.078247 1742.651978,962.205444 1871.299316,962.217041 
	C1873.274780,962.217224 1875.250366,962.449280 1878.030518,962.623657 
	C1860.005005,1033.187256 1842.080200,1103.356445 1824.015747,1174.072632 
	C1764.817749,1174.072632 1705.982910,1174.072632 1645.228882,1174.072632 
	C1647.186035,1176.205200 1647.846436,1177.138550 1648.703247,1177.827515 
	C1702.710815,1221.248535 1756.734619,1264.649902 1811.451660,1308.079590 
	C1812.146484,1308.106201 1811.957642,1307.931274 1811.869141,1307.837646 
z"/>
<path fill="#030303" opacity="1.000000" stroke="none" 
	d="
M2644.000000,962.196960 
	C2945.255859,962.196960 3245.511963,962.196960 3547.187012,962.196960 
	C3540.421631,988.976196 3533.871094,1014.905457 3527.163818,1041.454712 
	C3522.678955,1041.454712 3518.726074,1041.454712 3514.773438,1041.454712 
	C3300.808105,1041.454834 3086.843018,1041.438354 2872.877686,1041.525635 
	C2865.595703,1041.528687 2858.066406,1041.576294 2851.076660,1043.312378 
	C2825.266113,1049.722900 2808.849365,1066.233765 2801.886963,1091.888062 
	C2787.861084,1143.571655 2773.977051,1195.293701 2760.030518,1246.998901 
	C2754.666260,1266.885986 2749.291260,1286.770142 2743.845215,1306.937500 
	C2716.793701,1306.937500 2690.261475,1306.937500 2662.452637,1306.937500 
	C2674.422607,1262.153809 2685.901367,1217.843750 2698.155029,1173.748657 
	C2710.329834,1129.937134 2719.759033,1085.341431 2735.665039,1041.604736 
	C2664.869385,1041.604736 2594.410645,1041.604736 2522.465088,1041.604736 
	C2529.721436,1014.553955 2536.657715,988.695007 2543.765625,962.196960 
	C2577.180664,962.196960 2610.090332,962.196960 2644.000000,962.196960 
z"/>
<path fill="#030303" opacity="1.000000" stroke="none" 
	d="
M1058.013428,1124.046143 
	C1113.639282,1124.046143 1168.267944,1124.046143 1223.736450,1124.046143 
	C1230.837646,1096.918945 1237.876831,1070.029053 1245.145142,1042.263916 
	C1241.866089,1041.940430 1239.403931,1041.486084 1236.941650,1041.485107 
	C1143.633423,1041.450195 1050.323486,1041.785645 957.018066,1041.276733 
	C925.235474,1041.103394 897.933899,1062.128662 889.818665,1093.135498 
	C871.714355,1162.308838 852.758667,1231.259644 834.126099,1300.294556 
	C833.531189,1302.498413 832.675903,1304.632202 831.866028,1307.023071 
	C805.308472,1307.023071 779.077576,1307.023071 752.076904,1307.023071 
	C752.246765,1304.682373 752.062744,1302.457275 752.605408,1300.426514 
	C773.211365,1223.311035 793.516296,1146.112305 814.662354,1069.144775 
	C832.113281,1005.626648 888.360718,962.518127 954.151550,962.327881 
	C1082.782471,961.955872 1211.415039,962.203674 1340.046997,962.213928 
	C1342.016235,962.214050 1343.985596,962.457031 1346.872070,962.646912 
	C1343.663574,975.593750 1340.636719,988.152954 1337.435547,1000.667542 
	C1320.951416,1065.112549 1304.530151,1129.573853 1287.875366,1193.974854 
	C1274.050781,1247.432007 1241.134399,1283.286133 1188.467773,1300.638672 
	C1187.205200,1301.054443 1185.962402,1301.550903 1184.675171,1301.865479 
	C1182.749023,1302.335938 1180.791626,1302.678223 1177.391602,1303.372070 
	C1184.936279,1269.888672 1194.627319,1237.569580 1202.415527,1205.309082 
	C1201.812988,1204.453613 1201.670044,1204.170898 1201.454102,1203.965088 
	C1201.216064,1203.738525 1200.929077,1203.463135 1200.631470,1203.417480 
	C1199.656494,1203.267578 1198.666748,1203.132812 1197.682739,1203.132080 
	C1105.709961,1203.068481 1013.737183,1203.017944 921.764404,1202.951904 
	C921.479309,1202.951660 921.194336,1202.734741 920.136902,1202.305664 
	C920.877563,1200.347412 921.332642,1198.182983 922.421021,1196.406860 
	C950.480896,1150.617676 991.414490,1126.582642 1045.021606,1124.098633 
	C1049.011963,1123.913696 1053.017578,1124.055908 1058.013428,1124.046143 
z"/>
<path fill="#040404" opacity="1.000000" stroke="none" 
	d="
M3369.382812,1305.496338 
	C3356.223633,1306.225952 3343.921387,1307.300171 3331.618164,1307.312744 
	C3209.006836,1307.438477 3086.395752,1307.388916 2963.784424,1307.388916 
	C2960.147949,1307.388916 2956.511475,1307.388916 2951.413818,1307.388916 
	C2958.545898,1280.628174 2965.437744,1254.769287 2972.412354,1228.599365 
	C3139.559082,1228.599365 3306.420410,1228.599365 3473.261719,1228.599365 
	C3468.521973,1257.767212 3418.641602,1294.980713 3369.382812,1305.496338 
z"/>
<path fill="#010000" opacity="1.000000" stroke="none" 
	d="
M3254.000488,1095.492920 
	C3272.938232,1096.335083 3291.244629,1095.180176 3308.740967,1098.411987 
	C3352.816406,1106.553101 3385.818359,1131.356934 3407.999023,1170.384644 
	C3408.451904,1171.181885 3408.589600,1172.158447 3409.060547,1173.635254 
	C3268.492432,1173.635254 3128.380615,1173.635254 2987.246094,1173.635254 
	C2994.189697,1147.639160 3001.029053,1122.033081 3008.117920,1095.492920 
	C3089.879639,1095.492920 3171.439941,1095.492920 3254.000488,1095.492920 
z"/>
<path fill="#030202" opacity="1.000000" stroke="none" 
	d="
M2385.539307,1153.305420 
	C2402.803955,1089.319214 2419.859131,1026.123901 2436.989990,962.648071 
	C2464.083984,962.648071 2490.640869,962.648071 2518.083252,962.648071 
	C2513.876221,978.649048 2509.812988,994.326050 2505.630859,1009.971375 
	C2489.057617,1071.973633 2472.668213,1134.026367 2455.781982,1195.943481 
	C2441.593750,1247.967896 2409.537354,1284.199463 2358.671631,1303.149780 
	C2354.410645,1304.737183 2349.869629,1305.572754 2343.784912,1307.207275 
	C2357.910889,1255.147095 2371.620361,1204.621704 2385.539307,1153.305420 
z"/>
<path fill="#080707" opacity="1.000000" stroke="none" 
	d="
M1401.062500,1466.383545 
	C1404.919067,1463.807373 1408.589355,1460.879639 1412.666626,1458.719971 
	C1425.645142,1451.845093 1438.802734,1450.401245 1452.723022,1457.864014 
	C1450.757568,1461.671875 1449.190063,1464.708862 1447.084473,1468.788330 
	C1449.232422,1468.253174 1450.210083,1468.276245 1450.829956,1467.816650 
	C1474.485474,1450.278442 1500.960083,1450.517578 1527.930298,1456.339355 
	C1534.122681,1457.676025 1540.184570,1461.626099 1545.272949,1465.672852 
	C1557.913086,1475.725586 1558.284546,1489.836060 1555.283691,1503.991089 
	C1552.095093,1519.031616 1543.006470,1530.413818 1529.657959,1537.925903 
	C1506.105713,1551.179932 1480.902222,1553.513794 1455.559082,1545.216553 
	C1428.577759,1536.382812 1422.802002,1515.273071 1433.089111,1490.133789 
	C1435.319336,1484.683472 1439.116943,1479.874512 1442.440796,1474.358276 
	C1435.908691,1467.562012 1427.739624,1468.304565 1419.700073,1470.702148 
	C1402.867920,1475.721558 1393.656738,1488.448853 1388.128174,1504.132202 
	C1383.608398,1516.954346 1379.871704,1530.052124 1375.750122,1543.015747 
	C1375.252686,1544.579956 1374.519165,1546.069092 1373.863892,1547.669434 
	C1366.497681,1547.669434 1359.324951,1547.669434 1351.284058,1547.669434 
	C1360.761719,1516.665039 1370.038208,1486.318481 1379.398438,1455.697998 
	C1386.452759,1455.697998 1392.953247,1455.697998 1400.239990,1455.697998 
	C1399.937988,1457.862549 1399.679321,1459.715942 1398.845337,1462.907959 
	C1398.352905,1465.593262 1398.435669,1466.940063 1398.518433,1468.286865 
	C1399.366455,1467.652344 1400.214478,1467.017944 1401.062500,1466.383545 
M1533.630737,1491.134766 
	C1532.033203,1476.486694 1523.126831,1468.470093 1509.300903,1466.414185 
	C1482.502075,1462.429565 1458.559937,1478.538208 1453.565918,1502.870605 
	C1450.546997,1517.579956 1455.305298,1529.180054 1469.344482,1533.724854 
	C1486.490112,1539.275513 1502.610962,1536.604614 1516.673096,1524.484497 
	C1526.463013,1516.046631 1531.451904,1505.165405 1533.630737,1491.134766 
z"/>
<path fill="#070606" opacity="1.000000" stroke="none" 
	d="
M1997.529297,1521.650879 
	C1994.726440,1530.646240 1992.108887,1538.860352 1989.326416,1547.592041 
	C1981.934204,1547.592041 1974.387085,1547.592041 1965.416626,1547.592041 
	C1974.768311,1516.806763 1984.028076,1486.323853 1993.299561,1455.802734 
	C2001.547363,1455.802734 2008.997803,1455.802734 2016.864624,1455.802734 
	C2016.170410,1459.500488 2015.591675,1462.583252 2014.730225,1467.171387 
	C2019.296997,1464.559448 2022.923828,1462.645142 2026.390381,1460.474365 
	C2040.294678,1451.768188 2055.558105,1451.960571 2070.844971,1454.301025 
	C2078.903076,1455.534790 2085.144043,1460.680542 2089.292969,1468.165161 
	C2092.852539,1465.936646 2095.919922,1464.026733 2098.977295,1462.100586 
	C2114.554932,1452.286377 2131.761963,1451.385010 2149.112061,1454.227539 
	C2164.849121,1456.805908 2171.641113,1468.246704 2167.156006,1483.676636 
	C2160.954346,1505.010986 2154.071777,1526.147339 2147.375244,1547.708984 
	C2139.681885,1547.708984 2132.093262,1547.708984 2123.710205,1547.708984 
	C2124.719971,1543.659302 2125.510498,1539.887085 2126.604736,1536.204956 
	C2131.895264,1518.399780 2137.328613,1500.636963 2142.588135,1482.822754 
	C2145.973633,1471.355225 2142.433105,1466.464844 2130.769043,1466.116699 
	C2106.916992,1465.404663 2091.181152,1476.321411 2083.540283,1499.246948 
	C2078.201904,1515.264526 2073.201172,1531.394775 2067.961914,1547.748291 
	C2060.198975,1547.748291 2052.635010,1547.748291 2044.038086,1547.748291 
	C2047.974609,1534.680054 2051.787842,1522.135498 2055.527832,1509.568970 
	C2058.465332,1499.698730 2061.510742,1489.853882 2064.135986,1479.899414 
	C2066.232666,1471.949585 2062.788574,1467.241943 2054.727051,1466.153809 
	C2037.458618,1463.823120 2016.448120,1474.112915 2008.789673,1490.035034 
	C2004.081055,1499.824219 2001.339478,1510.559448 1997.529297,1521.650879 
z"/>
<path fill="#070606" opacity="1.000000" stroke="none" 
	d="
M2920.173828,1483.998291 
	C2923.697021,1470.874756 2920.412354,1466.351562 2908.002441,1466.107910 
	C2890.694824,1465.768066 2869.288818,1475.204346 2861.729736,1498.784302 
	C2856.872070,1513.938110 2852.346436,1529.198242 2847.639648,1544.400635 
	C2847.354492,1545.321899 2846.785156,1546.155273 2846.089600,1547.546509 
	C2838.470703,1547.546509 2830.687744,1547.546509 2822.366943,1547.546509 
	C2831.759277,1516.736572 2841.029053,1486.328735 2850.376709,1455.664551 
	C2858.357178,1455.664551 2865.852539,1455.664551 2873.888184,1455.664551 
	C2873.187988,1459.535522 2872.572021,1462.941895 2871.724609,1467.626953 
	C2884.275879,1459.638916 2895.839844,1452.881470 2910.345947,1453.055420 
	C2924.455811,1453.224731 2937.844727,1453.786743 2946.353271,1468.124390 
	C2949.301758,1466.316895 2952.075439,1464.769531 2954.690186,1462.988525 
	C2970.307617,1452.352295 2987.832031,1451.466064 3005.543701,1454.123413 
	C3021.502441,1456.517822 3028.494141,1467.475830 3024.169434,1482.874390 
	C3018.076416,1504.568970 3011.095215,1526.013794 3004.443359,1547.729248 
	C2996.230957,1547.729248 2988.672607,1547.729248 2980.225098,1547.729248 
	C2984.724609,1532.809692 2989.129150,1518.321899 2993.456055,1503.810913 
	C2995.826416,1495.861084 2998.188965,1487.905151 3000.327637,1479.891357 
	C3002.452148,1471.931030 2999.170898,1467.006592 2990.953369,1466.211914 
	C2972.979492,1464.473511 2948.760986,1472.242432 2941.408203,1496.148926 
	C2936.148438,1513.250610 2930.599854,1530.263428 2925.052490,1547.717285 
	C2917.611816,1547.717285 2910.033691,1547.717285 2901.030273,1547.717285 
	C2907.482422,1526.367676 2913.763184,1505.586182 2920.173828,1483.998291 
z"/>
<path fill="#080707" opacity="1.000000" stroke="none" 
	d="
M2613.477783,1570.057983 
	C2618.310547,1569.476685 2622.261963,1569.014160 2626.165039,1568.289551 
	C2634.729248,1566.699341 2640.420166,1561.479736 2643.705811,1553.622314 
	C2645.606934,1549.076538 2647.092285,1544.357178 2649.400635,1537.951538 
	C2645.058594,1539.786011 2642.224365,1540.907715 2639.452881,1542.166748 
	C2624.904297,1548.776489 2609.647217,1549.553345 2594.652344,1545.312378 
	C2562.391846,1536.187744 2556.625000,1505.308960 2573.068115,1482.286499 
	C2586.333496,1463.713257 2604.956055,1453.677734 2628.176758,1453.245117 
	C2637.144043,1453.078125 2646.345947,1452.349487 2654.657471,1456.391479 
	C2660.855713,1459.405884 2666.493652,1463.572754 2672.987793,1467.602905 
	C2674.300049,1463.938110 2675.670410,1460.111450 2677.216797,1455.792969 
	C2684.102783,1455.792969 2690.974121,1455.792969 2699.068359,1455.792969 
	C2696.499756,1464.680176 2694.089355,1473.378418 2691.469482,1482.012939 
	C2685.405273,1501.999756 2678.997314,1521.885498 2673.173828,1541.941528 
	C2665.211182,1569.364746 2649.984131,1581.278076 2618.181641,1583.211182 
	C2603.266602,1584.117798 2588.258301,1583.927734 2573.954102,1578.168701 
	C2562.612061,1573.602173 2558.177002,1567.111938 2559.095947,1554.299072 
	C2562.804932,1554.220825 2566.656006,1554.106812 2570.507568,1554.067261 
	C2574.479492,1554.026367 2578.451904,1554.058105 2581.493408,1554.058105 
	C2584.097412,1558.669067 2585.388184,1563.700684 2588.617676,1565.956055 
	C2592.387451,1568.588989 2597.796143,1569.106567 2602.597900,1569.949707 
	C2605.830322,1570.517212 2609.242676,1570.057983 2613.477783,1570.057983 
M2660.946045,1505.220947 
	C2661.464600,1503.650879 2661.896729,1502.045776 2662.515137,1500.516113 
	C2668.169678,1486.527832 2659.629639,1471.157959 2643.459473,1467.193237 
	C2617.719971,1460.882202 2592.126709,1479.331543 2589.632812,1505.190918 
	C2587.960449,1522.530884 2598.372314,1533.738525 2615.789062,1534.085083 
	C2636.548584,1534.498169 2651.470215,1525.560425 2660.946045,1505.220947 
z"/>
<path fill="#070707" opacity="1.000000" stroke="none" 
	d="
M1279.973389,1458.346924 
	C1295.340698,1451.674194 1310.452637,1451.262695 1325.503418,1455.526489 
	C1346.301758,1461.418579 1354.133179,1478.308228 1351.228271,1497.724365 
	C1346.263062,1530.910156 1314.297974,1547.824219 1292.017456,1549.291870 
	C1272.177612,1550.598633 1266.248413,1548.536987 1247.959351,1534.907715 
	C1242.930298,1551.127563 1238.015869,1566.977417 1233.048706,1582.997314 
	C1225.332642,1582.997314 1218.080811,1582.997314 1209.213989,1582.997314 
	C1221.852905,1540.042969 1235.132812,1497.982178 1248.016479,1455.620239 
	C1255.563965,1455.620239 1262.438721,1455.620239 1269.735352,1455.620239 
	C1269.487671,1458.170044 1269.282471,1460.282349 1268.923096,1463.980591 
	C1273.052979,1461.854736 1276.139771,1460.265869 1279.973389,1458.346924 
M1323.414551,1475.976440 
	C1314.515991,1465.735107 1302.987915,1464.327271 1290.733643,1466.997803 
	C1271.806396,1471.122437 1256.038330,1491.746704 1255.608887,1511.375366 
	C1255.273560,1526.696167 1262.568115,1532.133423 1272.763184,1534.628662 
	C1280.139038,1536.433960 1288.792480,1536.291504 1296.136841,1534.296143 
	C1313.316406,1529.628906 1327.675415,1509.350464 1327.476929,1491.478271 
	C1327.424438,1486.753296 1325.312744,1482.051147 1323.414551,1475.976440 
z"/>
<path fill="#080707" opacity="1.000000" stroke="none" 
	d="
M2437.925781,1508.200684 
	C2449.785645,1495.983643 2464.659424,1494.328735 2479.691650,1493.248657 
	C2494.558838,1492.180054 2509.460938,1491.527100 2524.301025,1490.178833 
	C2531.940674,1489.484619 2533.378662,1487.695801 2534.173584,1481.749634 
	C2535.027344,1475.365234 2533.276611,1472.448853 2526.755127,1469.390869 
	C2508.029297,1460.610352 2483.211182,1466.001953 2469.800293,1481.669922 
	C2461.917480,1481.669922 2454.146973,1481.669922 2445.541748,1481.669922 
	C2450.502930,1469.607666 2459.810547,1463.472046 2470.167725,1458.897949 
	C2475.555664,1456.518555 2481.544678,1454.584717 2487.359375,1454.275635 
	C2500.262451,1453.589600 2513.228516,1453.923706 2526.164062,1454.143433 
	C2529.420898,1454.198730 2532.788574,1455.022949 2535.884277,1456.118896 
	C2559.093262,1464.336182 2561.586914,1471.714355 2555.873291,1492.454590 
	C2554.374268,1497.896362 2552.329834,1503.187744 2550.539307,1508.549316 
	C2544.106934,1527.812134 2544.000000,1528.724609 2546.015625,1547.516968 
	C2544.760742,1547.715088 2543.493896,1548.076416 2542.223633,1548.088379 
	C2535.923584,1548.148071 2529.622803,1548.115601 2523.041992,1548.115601 
	C2521.947998,1544.631592 2520.981689,1541.553589 2519.934326,1538.216919 
	C2512.353027,1541.061768 2505.187988,1544.231201 2497.738525,1546.442627 
	C2483.469727,1550.678223 2468.977783,1550.889648 2454.565186,1546.961304 
	C2451.401367,1546.099121 2448.321289,1544.700317 2445.418945,1543.145264 
	C2431.621582,1535.752808 2427.931641,1519.381104 2437.925781,1508.200684 
M2490.032715,1535.997559 
	C2492.928223,1535.299805 2495.856934,1534.715454 2498.714111,1533.885498 
	C2514.812988,1529.209229 2524.918457,1517.697266 2526.623779,1501.821289 
	C2521.646729,1502.320923 2516.754639,1502.798096 2511.865723,1503.305542 
	C2498.406250,1504.702393 2484.850342,1505.517456 2471.520752,1507.707886 
	C2461.148193,1509.412354 2455.667969,1515.973022 2456.352783,1523.166992 
	C2456.976318,1529.715332 2464.717285,1535.403687 2474.314697,1536.024048 
	C2478.942383,1536.323242 2483.605469,1536.078735 2490.032715,1535.997559 
z"/>
<path fill="#080707" opacity="1.000000" stroke="none" 
	d="
M2224.699219,1549.105225 
	C2214.894775,1548.904175 2205.766602,1549.490601 2197.077881,1547.807007 
	C2190.524170,1546.536743 2183.658936,1543.444458 2178.472412,1539.256104 
	C2167.190674,1530.145874 2167.436768,1516.404907 2177.802979,1506.293823 
	C2186.151855,1498.150635 2196.814941,1495.473389 2207.764893,1494.194580 
	C2218.626709,1492.926025 2229.618164,1492.791382 2240.544434,1492.038452 
	C2248.152100,1491.514404 2255.737305,1490.447998 2263.348145,1490.263672 
	C2268.768311,1490.132446 2271.162109,1487.561523 2272.060791,1482.676880 
	C2273.180176,1476.596313 2271.719238,1473.025879 2266.478271,1470.200928 
	C2264.459229,1469.112671 2262.238281,1468.253418 2260.006104,1467.730225 
	C2247.800049,1464.869751 2235.405029,1464.537964 2223.774414,1469.216431 
	C2217.582764,1471.707153 2212.484863,1476.916016 2205.339111,1482.004883 
	C2199.964111,1482.004883 2192.346680,1482.004883 2184.138916,1482.004883 
	C2185.230713,1475.360352 2189.506836,1471.362549 2193.963867,1467.560669 
	C2203.091797,1459.774902 2213.864746,1455.106323 2225.624268,1454.266602 
	C2238.514160,1453.345947 2251.596680,1453.217529 2264.446289,1454.383911 
	C2271.788574,1455.050659 2279.059326,1458.482788 2285.954834,1461.577759 
	C2294.148438,1465.255249 2297.656494,1472.216919 2296.200439,1481.181152 
	C2295.406982,1486.064331 2294.179688,1490.901123 2292.805176,1495.659668 
	C2291.143066,1501.414673 2289.121094,1507.065796 2287.249512,1512.760132 
	C2283.614502,1523.820068 2279.953369,1534.876709 2284.883057,1547.391846 
	C2276.357910,1547.391846 2268.628662,1547.391846 2260.858643,1547.391846 
	C2259.811768,1544.278809 2258.767090,1541.172363 2258.033447,1538.990479 
	C2246.996582,1542.364746 2236.280273,1545.640991 2224.699219,1549.105225 
M2211.972168,1536.073364 
	C2220.181641,1535.358887 2228.637207,1535.651978 2236.549072,1533.718872 
	C2252.797119,1529.749146 2262.656982,1518.010254 2264.735107,1501.817871 
	C2259.742676,1502.319458 2254.859131,1502.859131 2249.966064,1503.291992 
	C2239.104736,1504.252686 2228.165771,1504.671631 2217.403076,1506.279297 
	C2211.348633,1507.183716 2205.005127,1509.060303 2199.820312,1512.198486 
	C2191.905518,1516.988647 2192.382568,1526.784180 2200.216797,1531.763062 
	C2203.223877,1533.674194 2206.887939,1534.551392 2211.972168,1536.073364 
z"/>
<path fill="#060606" opacity="1.000000" stroke="none" 
	d="
M2730.536133,1506.114746 
	C2726.667236,1506.114746 2723.733887,1506.114746 2720.837402,1506.114746 
	C2720.163574,1525.177856 2730.261475,1535.648926 2748.243652,1536.124390 
	C2763.723877,1536.533691 2776.909180,1531.783081 2787.617432,1520.415649 
	C2788.875732,1519.080200 2790.685303,1517.485107 2792.306885,1517.406616 
	C2799.200684,1517.072754 2806.120117,1517.264893 2813.765869,1517.264893 
	C2809.367676,1528.748901 2800.780273,1534.619019 2791.855957,1539.406860 
	C2769.030518,1551.651855 2745.040771,1553.184448 2720.754150,1544.210449 
	C2701.020508,1536.918945 2691.913574,1518.610962 2697.959961,1498.567871 
	C2705.553711,1473.396240 2723.842285,1459.611694 2748.696777,1454.694458 
	C2763.364990,1451.792358 2778.503174,1451.618652 2793.170410,1455.980103 
	C2804.783936,1459.433472 2814.165527,1465.949097 2819.121338,1477.449951 
	C2823.096680,1486.674316 2822.521484,1496.086670 2819.361572,1506.114746 
	C2790.027100,1506.114746 2760.749512,1506.114746 2730.536133,1506.114746 
M2798.807861,1492.507935 
	C2800.097656,1481.685303 2795.713135,1474.144897 2785.935547,1469.344971 
	C2770.899658,1461.963745 2745.470459,1466.155762 2732.756836,1480.548950 
	C2729.841309,1483.849243 2727.954590,1488.057983 2724.763184,1493.183472 
	C2750.228027,1493.183472 2773.745361,1493.183472 2798.807861,1492.507935 
z"/>
<path fill="#070606" opacity="1.000000" stroke="none" 
	d="
M1623.557617,1471.544434 
	C1637.868652,1458.770874 1654.204102,1453.297241 1672.465820,1453.280151 
	C1679.434204,1453.273682 1686.476929,1453.216919 1693.358154,1454.137695 
	C1716.379517,1457.217896 1736.919312,1472.682007 1728.647827,1505.686279 
	C1696.165894,1505.686279 1663.400269,1505.686279 1630.902954,1505.686279 
	C1626.719849,1522.266235 1638.259766,1533.856323 1651.617798,1535.712402 
	C1668.135620,1538.007812 1683.475586,1534.146118 1695.267212,1521.536865 
	C1698.418091,1518.167358 1701.379517,1517.050659 1705.574585,1517.192749 
	C1710.830078,1517.370972 1716.096313,1517.235718 1722.502075,1517.235718 
	C1720.668457,1523.292603 1717.529907,1527.373291 1713.515625,1530.606079 
	C1687.703247,1551.392822 1658.801025,1554.996704 1628.368896,1543.729614 
	C1607.210938,1535.896362 1599.425293,1513.270752 1609.587280,1491.534302 
	C1612.883789,1484.483154 1618.497925,1478.515503 1623.557617,1471.544434 
M1665.017334,1493.325684 
	C1679.240479,1493.325684 1693.463623,1493.325684 1707.620850,1493.325684 
	C1708.200562,1477.872681 1700.541504,1468.161621 1686.122437,1466.323608 
	C1671.826172,1464.501343 1658.262817,1466.952026 1646.528320,1476.146118 
	C1641.003906,1480.474731 1636.818970,1485.608765 1635.330811,1493.325684 
	C1645.071655,1493.325684 1654.049927,1493.325684 1665.017334,1493.325684 
z"/>
<path fill="#070606" opacity="1.000000" stroke="none" 
	d="
M3085.674805,1536.063965 
	C3099.745850,1535.471558 3111.053955,1530.569214 3120.030518,1520.851685 
	C3122.229492,1518.470947 3124.242920,1517.032471 3127.612549,1517.170044 
	C3133.531982,1517.411865 3139.468262,1517.237549 3146.526123,1517.237549 
	C3144.638184,1523.325684 3141.461914,1527.374878 3137.462646,1530.656616 
	C3122.866699,1542.635010 3106.311035,1549.346802 3087.157959,1549.402710 
	C3075.456055,1549.436768 3064.013428,1548.835938 3053.015381,1544.183472 
	C3033.797607,1536.054077 3024.864990,1517.703735 3031.251709,1497.720459 
	C3039.534912,1471.804565 3058.739746,1458.389648 3084.536133,1454.341797 
	C3095.227051,1452.664062 3106.514404,1453.019165 3117.326172,1454.248169 
	C3140.413330,1456.872437 3160.989746,1472.757812 3152.602295,1505.746704 
	C3120.087891,1505.746704 3087.283203,1505.746704 3054.747803,1505.746704 
	C3050.673828,1522.176758 3062.932617,1534.563110 3077.803955,1536.025879 
	C3080.114502,1536.253174 3082.466553,1536.061768 3085.674805,1536.063965 
M3132.085205,1487.569946 
	C3131.297363,1476.234131 3123.471680,1468.675049 3110.427246,1466.483521 
	C3095.908936,1464.044556 3082.049072,1467.024170 3070.105957,1476.391846 
	C3064.827393,1480.532104 3061.249512,1485.791870 3058.459961,1493.271729 
	C3082.901367,1493.271729 3106.022949,1493.325684 3129.141846,1493.101562 
	C3130.218262,1493.091187 3131.270264,1490.595947 3132.085205,1487.569946 
z"/>
<path fill="#070606" opacity="1.000000" stroke="none" 
	d="
M2301.379395,1548.059814 
	C2300.135498,1546.762695 2299.122314,1545.328979 2299.434814,1544.296875 
	C2308.373779,1514.792480 2317.445801,1485.328613 2326.544189,1455.701660 
	C2333.758057,1455.701660 2340.587158,1455.701660 2347.921143,1455.701660 
	C2347.146484,1459.631958 2346.477051,1463.028076 2345.496826,1468.000488 
	C2350.474365,1465.145752 2354.075195,1462.920288 2357.816162,1460.963257 
	C2372.177246,1453.450806 2387.596680,1452.043213 2403.407959,1453.543701 
	C2406.662354,1453.852539 2409.922363,1454.946777 2412.998047,1456.144897 
	C2423.908936,1460.395508 2430.373535,1470.360352 2427.292480,1481.475952 
	C2421.106689,1503.790649 2413.685547,1525.762939 2406.790283,1547.825928 
	C2398.457520,1547.825928 2391.183594,1547.825928 2382.522217,1547.825928 
	C2385.633057,1537.856812 2388.630127,1528.293701 2391.600342,1518.722290 
	C2395.336182,1506.683228 2398.753906,1494.535278 2402.863037,1482.625488 
	C2406.445068,1472.244507 2401.511963,1466.969116 2390.825439,1466.228027 
	C2364.691406,1464.415527 2345.072998,1475.835449 2336.432861,1501.748047 
	C2331.404785,1516.827393 2327.067139,1532.136963 2322.184326,1548.110229 
	C2315.366943,1548.110229 2308.797607,1548.110229 2301.379395,1548.059814 
z"/>
<path fill="#070606" opacity="1.000000" stroke="none" 
	d="
M3204.325684,1466.332764 
	C3207.274902,1464.889771 3210.270508,1463.533203 3213.166016,1461.989380 
	C3230.305908,1452.852051 3248.375732,1450.362549 3267.116211,1455.349487 
	C3280.136475,1458.814087 3286.032471,1467.561646 3284.251221,1481.536011 
	C3284.125000,1482.525269 3284.064209,1483.546021 3283.766602,1484.486816 
	C3277.089600,1505.593628 3270.383789,1526.691284 3263.713379,1547.696045 
	C3255.340820,1547.696045 3247.809814,1547.696045 3239.420410,1547.696045 
	C3242.885498,1536.704590 3246.161621,1526.336792 3249.421631,1515.963745 
	C3252.403076,1506.476318 3255.411377,1496.996704 3258.311768,1487.484375 
	C3259.174805,1484.654785 3259.879639,1481.754028 3260.365967,1478.837402 
	C3261.388916,1472.701782 3260.383301,1469.386841 3254.748779,1468.212158 
	C3247.451904,1466.691162 3239.518799,1465.685791 3232.278076,1466.917847 
	C3212.542236,1470.275757 3199.704834,1482.366821 3193.646973,1501.473145 
	C3188.840332,1516.633179 3184.165771,1531.834961 3179.261230,1547.568237 
	C3171.920898,1547.568237 3164.395020,1547.568237 3155.387939,1547.568237 
	C3164.778809,1516.860840 3174.079346,1486.448120 3183.476562,1455.719238 
	C3190.739990,1455.719238 3197.547607,1455.719238 3205.356201,1455.719238 
	C3204.421387,1458.775391 3203.681396,1461.193848 3202.667236,1464.761719 
	C3202.605713,1466.491577 3202.818604,1467.071899 3203.031738,1467.652344 
	C3203.463135,1467.212524 3203.894531,1466.772705 3204.325684,1466.332764 
z"/>
<path fill="#080808" opacity="1.000000" stroke="none" 
	d="
M1778.868164,1549.345947 
	C1773.747192,1548.530762 1769.422485,1548.054565 1765.312378,1546.847900 
	C1743.365967,1540.404175 1733.376343,1522.847656 1738.787598,1500.555298 
	C1746.165405,1470.161865 1769.215942,1455.809204 1797.087280,1453.476929 
	C1810.195435,1452.380127 1823.655640,1451.831909 1836.439697,1457.256104 
	C1849.425171,1462.765503 1855.706177,1471.173706 1855.701416,1484.771240 
	C1848.198975,1484.771240 1840.677368,1484.771240 1833.079346,1484.771240 
	C1829.891235,1472.071899 1822.697144,1466.857666 1809.247314,1466.036011 
	C1776.697754,1464.047607 1763.237793,1489.535156 1761.850586,1512.364136 
	C1761.019653,1526.039062 1770.787354,1535.326538 1784.524048,1536.113525 
	C1802.457031,1537.141113 1814.960327,1528.884277 1824.033081,1513.668213 
	C1831.754028,1513.668213 1839.560181,1513.668213 1848.309692,1513.668213 
	C1841.085205,1530.725586 1828.660645,1540.621460 1812.234253,1545.999756 
	C1801.680176,1549.455444 1790.764771,1549.950439 1778.868164,1549.345947 
z"/>
<path fill="#070707" opacity="1.000000" stroke="none" 
	d="
M3345.506348,1437.925293 
	C3343.735840,1443.742065 3342.183838,1448.786743 3340.307861,1454.885498 
	C3347.804199,1454.885498 3354.339844,1454.885498 3361.904785,1454.885498 
	C3360.710693,1459.607788 3359.778564,1463.292847 3358.670166,1467.676270 
	C3351.213135,1467.676270 3344.014648,1467.676270 3336.251709,1467.676270 
	C3333.787354,1475.782959 3331.468262,1483.311157 3329.211670,1490.857788 
	C3325.600830,1502.931519 3321.843994,1514.966309 3318.518799,1527.118774 
	C3316.687744,1533.810547 3318.271973,1535.728271 3325.017578,1536.016235 
	C3329.918945,1536.225586 3334.836426,1536.057129 3340.480469,1536.057129 
	C3339.543457,1539.817383 3338.617188,1543.533081 3337.504150,1547.999268 
	C3325.352295,1549.860962 3313.261719,1551.240356 3301.462646,1546.225342 
	C3292.893799,1542.583374 3290.982666,1538.878784 3293.507568,1529.760254 
	C3298.198730,1512.819336 3303.337402,1496.002686 3308.250000,1479.122925 
	C3309.251221,1475.682739 3310.078613,1472.192017 3311.228271,1467.798828 
	C3305.045898,1467.798828 3299.830078,1467.798828 3293.564209,1467.798828 
	C3295.087402,1463.131348 3296.288574,1459.450562 3297.665527,1455.230957 
	C3303.714844,1455.230957 3309.272705,1455.230957 3315.209229,1455.230957 
	C3316.666504,1451.327026 3318.684326,1448.034424 3319.035889,1444.572754 
	C3319.980713,1435.267456 3325.573486,1430.870728 3333.824707,1428.401855 
	C3338.770752,1426.922119 3343.550293,1424.884888 3350.242188,1422.421631 
	C3348.346436,1428.603882 3347.035645,1432.878418 3345.506348,1437.925293 
z"/>
<path fill="#070606" opacity="1.000000" stroke="none" 
	d="
M1901.365967,1538.270874 
	C1898.072876,1549.051025 1898.071411,1549.309937 1887.571899,1549.249268 
	C1880.327271,1549.207520 1872.828247,1549.347778 1865.903564,1547.591187 
	C1854.247314,1544.634644 1851.601074,1539.249634 1854.917969,1527.485596 
	C1859.408325,1511.559937 1864.358765,1495.764282 1869.080444,1479.903564 
	C1870.113525,1476.433228 1871.014526,1472.923706 1872.214233,1468.568604 
	C1866.644775,1468.293457 1861.557373,1468.041992 1855.245117,1467.730103 
	C1856.417847,1463.346680 1857.456421,1459.464478 1858.356323,1456.100586 
	C1865.103516,1455.244629 1872.291382,1456.306885 1876.345947,1453.234375 
	C1880.020386,1450.449951 1880.366089,1443.184692 1882.012085,1437.843506 
	C1883.055786,1434.457275 1884.799438,1432.300293 1888.426514,1431.090454 
	C1895.469849,1428.740967 1902.297607,1425.745117 1911.210327,1422.230103 
	C1907.574951,1434.178589 1904.572998,1444.045044 1901.193848,1455.151367 
	C1908.977051,1455.151367 1915.445801,1455.151367 1922.827026,1455.151367 
	C1921.532349,1460.020752 1920.539429,1463.755249 1919.396851,1468.052856 
	C1912.011475,1468.052856 1904.757935,1468.052856 1896.809937,1468.052856 
	C1890.918701,1488.382324 1885.032227,1508.294434 1879.433350,1528.286987 
	C1877.965576,1533.527954 1879.650146,1535.667114 1885.014282,1535.976318 
	C1889.302246,1536.223755 1893.633789,1535.627197 1897.938477,1535.726929 
	C1899.157471,1535.755127 1900.350464,1536.913208 1901.365967,1538.270874 
z"/>
<path fill="#060707" opacity="1.000000" stroke="none" 
	d="
M1604.204590,1462.462769 
	C1594.761597,1493.663208 1585.499023,1524.071777 1576.175049,1554.461426 
	C1575.208008,1557.613159 1573.923340,1560.671753 1572.704224,1563.740967 
	C1567.735596,1576.249878 1557.855347,1582.356812 1545.045776,1583.132690 
	C1535.579468,1583.706177 1526.011230,1582.598633 1515.326294,1582.196289 
	C1516.987915,1576.393677 1518.218384,1572.097046 1519.611938,1567.230225 
	C1524.755981,1567.230225 1529.365112,1567.029907 1533.950684,1567.273560 
	C1542.346802,1567.719971 1547.991699,1564.084351 1550.865112,1556.281616 
	C1553.274536,1549.738770 1555.645996,1543.169434 1557.682373,1536.504272 
	C1565.329468,1511.476196 1572.815796,1486.399170 1580.422363,1461.358643 
	C1580.991455,1459.484741 1582.032837,1457.754395 1582.980347,1455.682617 
	C1590.421021,1455.682617 1597.907227,1455.682617 1606.348511,1455.682617 
	C1605.536133,1458.135864 1604.951782,1459.900757 1604.204590,1462.462769 
z"/>
<path fill="#070606" opacity="1.000000" stroke="none" 
	d="
M1598.090576,1440.117554 
	C1594.227295,1440.117554 1591.278687,1440.117554 1587.639771,1440.117554 
	C1589.558105,1433.658447 1591.238770,1427.999512 1593.072754,1421.824219 
	C1600.700073,1421.824219 1608.213867,1421.824219 1616.906372,1421.824219 
	C1615.080322,1427.994019 1613.344849,1433.858154 1611.492310,1440.117554 
	C1606.936157,1440.117554 1602.970703,1440.117554 1598.090576,1440.117554 
z"/>
<path fill="#F4F2F2" opacity="1.000000" stroke="none" 
	d="
M920.930908,1060.089355 
	C919.927307,1059.760498 919.408386,1059.083862 918.889526,1058.407227 
	C921.210999,1056.917358 923.532532,1055.427490 925.854065,1053.937622 
	C926.222717,1054.438232 926.591431,1054.938843 926.960083,1055.439453 
	C925.112000,1056.873413 923.263855,1058.307495 920.930908,1060.089355 
z"/>
<path fill="#FCFDFD" opacity="1.000000" stroke="none" 
	d="
M1919.308105,1211.347900 
	C1930.317383,1170.409912 1940.824951,1130.196655 1951.890991,1090.137695 
	C1959.999634,1060.784668 1984.619507,1041.945801 2015.175537,1041.537231 
	C2043.486694,1041.158569 2071.806641,1041.440430 2100.122803,1041.439087 
	C2164.750488,1041.436157 2229.377930,1041.438110 2294.005615,1041.438110 
	C2297.626465,1041.438110 2301.247314,1041.438110 2306.202393,1041.438110 
	C2301.500244,1059.888794 2297.046631,1077.363525 2292.425781,1095.494263 
	C2288.217041,1095.494263 2284.632812,1095.493896 2281.048584,1095.494263 
	C2226.748047,1095.500854 2172.441162,1094.978516 2118.149170,1095.662354 
	C2063.532715,1096.350098 2022.125854,1121.115356 1993.467651,1167.447144 
	C1992.447510,1169.096436 1991.611084,1170.859497 1990.085205,1173.688965 
	C2084.349854,1173.688965 2177.683350,1173.688965 2272.123291,1173.688965 
	C2271.189697,1177.582642 2270.723633,1180.407104 2269.835205,1183.091675 
	C2261.244629,1209.057861 2236.833740,1227.939331 2209.791992,1228.018555 
	C2112.851562,1228.302612 2015.910034,1228.140991 1918.968872,1228.124634 
	C1917.998413,1228.124512 1917.028076,1227.807739 1915.139160,1227.478760 
	C1916.468384,1222.259399 1917.757080,1217.199097 1919.308105,1211.347900 
z"/>
<path fill="#FBFCFC" opacity="1.000000" stroke="none" 
	d="
M1533.620605,1491.926270 
	C1531.451904,1505.165405 1526.463013,1516.046631 1516.673096,1524.484497 
	C1502.610962,1536.604614 1486.490112,1539.275513 1469.344482,1533.724854 
	C1455.305298,1529.180054 1450.546997,1517.579956 1453.565918,1502.870605 
	C1458.559937,1478.538208 1482.502075,1462.429565 1509.300903,1466.414185 
	C1523.126831,1468.470093 1532.033203,1476.486694 1533.620605,1491.926270 
z"/>
<path fill="#FFFFFF" opacity="1.000000" stroke="none" 
	d="
M1400.593872,1465.514893 
	C1400.214478,1467.017944 1399.366455,1467.652344 1398.518433,1468.286865 
	C1398.435669,1466.940063 1398.352905,1465.593262 1398.593872,1463.665894 
	C1399.320190,1463.605835 1399.722778,1464.126221 1400.593872,1465.514893 
z"/>
<path fill="#FAFBFB" opacity="1.000000" stroke="none" 
	d="
M2660.577637,1505.906494 
	C2651.470215,1525.560425 2636.548584,1534.498169 2615.789062,1534.085083 
	C2598.372314,1533.738525 2587.960449,1522.530884 2589.632812,1505.190918 
	C2592.126709,1479.331543 2617.719971,1460.882202 2643.459473,1467.193237 
	C2659.629639,1471.157959 2668.169678,1486.527832 2662.515137,1500.516113 
	C2661.896729,1502.045776 2661.464600,1503.650879 2660.577637,1505.906494 
z"/>
<path fill="#FBFCFC" opacity="1.000000" stroke="none" 
	d="
M1323.780518,1476.657471 
	C1325.312744,1482.051147 1327.424438,1486.753296 1327.476929,1491.478271 
	C1327.675415,1509.350464 1313.316406,1529.628906 1296.136841,1534.296143 
	C1288.792480,1536.291504 1280.139038,1536.433960 1272.763184,1534.628662 
	C1262.568115,1532.133423 1255.273560,1526.696167 1255.608887,1511.375366 
	C1256.038330,1491.746704 1271.806396,1471.122437 1290.733643,1466.997803 
	C1302.987915,1464.327271 1314.515991,1465.735107 1323.780518,1476.657471 
z"/>
<path fill="#F8F9F9" opacity="1.000000" stroke="none" 
	d="
M2489.142578,1536.039062 
	C2483.605469,1536.078735 2478.942383,1536.323242 2474.314697,1536.024048 
	C2464.717285,1535.403687 2456.976318,1529.715332 2456.352783,1523.166992 
	C2455.667969,1515.973022 2461.148193,1509.412354 2471.520752,1507.707886 
	C2484.850342,1505.517456 2498.406250,1504.702393 2511.865723,1503.305542 
	C2516.754639,1502.798096 2521.646729,1502.320923 2526.623779,1501.821289 
	C2524.918457,1517.697266 2514.812988,1529.209229 2498.714111,1533.885498 
	C2495.856934,1534.715454 2492.928223,1535.299805 2489.142578,1536.039062 
z"/>
<path fill="#F8F9F9" opacity="1.000000" stroke="none" 
	d="
M2211.112305,1535.986572 
	C2206.887939,1534.551392 2203.223877,1533.674194 2200.216797,1531.763062 
	C2192.382568,1526.784180 2191.905518,1516.988647 2199.820312,1512.198486 
	C2205.005127,1509.060303 2211.348633,1507.183716 2217.403076,1506.279297 
	C2228.165771,1504.671631 2239.104736,1504.252686 2249.966064,1503.291992 
	C2254.859131,1502.859131 2259.742676,1502.319458 2264.735107,1501.817871 
	C2262.656982,1518.010254 2252.797119,1529.749146 2236.549072,1533.718872 
	C2228.637207,1535.651978 2220.181641,1535.358887 2211.112305,1535.986572 
z"/>
<path fill="#F4F2F2" opacity="1.000000" stroke="none" 
	d="
M2798.035156,1492.845703 
	C2773.745361,1493.183472 2750.228027,1493.183472 2724.763184,1493.183472 
	C2727.954590,1488.057983 2729.841309,1483.849243 2732.756836,1480.548950 
	C2745.470459,1466.155762 2770.899658,1461.963745 2785.935547,1469.344971 
	C2795.713135,1474.144897 2800.097656,1481.685303 2798.035156,1492.845703 
z"/>
<path fill="#F4F2F2" opacity="1.000000" stroke="none" 
	d="
M1664.022705,1493.325684 
	C1654.049927,1493.325684 1645.071655,1493.325684 1635.330811,1493.325684 
	C1636.818970,1485.608765 1641.003906,1480.474731 1646.528320,1476.146118 
	C1658.262817,1466.952026 1671.826172,1464.501343 1686.122437,1466.323608 
	C1700.541504,1468.161621 1708.200562,1477.872681 1707.620850,1493.325684 
	C1693.463623,1493.325684 1679.240479,1493.325684 1664.022705,1493.325684 
z"/>
<path fill="#F4F2F2" opacity="1.000000" stroke="none" 
	d="
M3132.209473,1488.414062 
	C3131.270264,1490.595947 3130.218262,1493.091187 3129.141846,1493.101562 
	C3106.022949,1493.325684 3082.901367,1493.271729 3058.459961,1493.271729 
	C3061.249512,1485.791870 3064.827393,1480.532104 3070.105957,1476.391846 
	C3082.049072,1467.024170 3095.908936,1464.044556 3110.427246,1466.483521 
	C3123.471680,1468.675049 3131.297363,1476.234131 3132.209473,1488.414062 
z"/>
<path fill="#FFFFFF" opacity="1.000000" stroke="none" 
	d="
M3203.967285,1465.988281 
	C3203.894531,1466.772705 3203.463135,1467.212524 3203.031738,1467.652344 
	C3202.818604,1467.071899 3202.605713,1466.491577 3202.615234,1465.463989 
	C3202.837646,1465.016846 3203.609131,1465.643677 3203.967285,1465.988281 
z"/>
</svg>